<svg width="189" height="46" viewBox="0 0 189 46" fill="none" xmlns="http://www.w3.org/2000/svg">
<path d="M52.0821 21.472H52.0556C47.6867 21.472 44.1451 25.0137 44.1451 29.3826V38.0895C44.1451 42.4583 47.6867 46 52.0556 46H52.0821C56.451 46 59.9927 42.4583 59.9927 38.0895V29.3826C59.9927 25.0137 56.451 21.472 52.0821 21.472Z" fill="#000B84"/>
<path d="M43.9061 10.5353L28.9611 0.686949C26.2269 -1.11814 22.5902 0.846222 22.5902 4.11131V23.0913C22.5902 26.3033 26.1207 28.2677 28.8549 26.5953L43.8 17.4637C46.3749 15.8975 46.428 12.1811 43.9061 10.5088V10.5353Z" fill="#000B84"/>
<path d="M4.88436 16.1098C2.20327 16.1098 0 18.2866 0 20.9942V41.1156C0 43.7967 2.17673 46 4.88436 46C13.14 46 19.8294 39.3106 19.8294 31.0549C19.8294 22.7993 13.14 16.1098 4.88436 16.1098Z" fill="#000B84"/>
<path d="M78.9613 15.1292C78.4304 14.8637 77.8464 14.6779 77.1827 14.5717C77.9791 14.4125 78.6427 14.0674 79.1471 13.563C79.7576 12.979 80.0762 12.2623 80.0762 11.4659C80.0762 10.6695 79.6249 9.475 78.7489 8.86446C77.8729 8.25391 76.6253 7.96191 75.0591 7.96191H68.8475V8.3601H68.9006C69.5642 8.43973 70.0155 8.57246 70.2544 8.75828C70.4933 8.9441 70.5995 9.28918 70.5995 9.74046V20.1994C70.5995 20.6506 70.4933 20.9692 70.2544 21.1815C70.0155 21.3939 69.5642 21.5266 68.9006 21.6063H68.8475V22.0044H76.0147C77.5809 22.0044 78.802 21.6594 79.678 20.9692C80.554 20.279 81.0053 19.3234 81.0053 18.1288C81.0053 16.9343 80.8195 16.9343 80.4744 16.4034C80.1293 15.899 79.6249 15.4477 78.9878 15.1292H78.9613ZM76.758 13.563C76.2536 14.0939 75.6166 14.3594 74.7936 14.3594H73.0947V8.62555H74.5547C75.4307 8.62555 76.1475 8.891 76.6784 9.39537C77.2093 9.89973 77.4747 10.6165 77.4747 11.4659C77.4747 12.3154 77.2358 13.0055 76.7315 13.5365L76.758 13.563ZM78.4038 18.1288C78.4038 19.0845 78.1118 19.8808 77.5544 20.4383C76.9969 21.0223 76.2536 21.3143 75.3246 21.3143H74.5547C73.546 21.3143 73.0682 20.9692 73.0682 20.2259V15.0495H75.0326C76.0413 15.0495 76.8376 15.3415 77.4747 15.899C78.0853 16.4565 78.4038 17.1997 78.4038 18.1288Z" fill="#000B84"/>
<path d="M90.2165 18.8455C90.0307 19.403 89.7122 19.8543 89.2875 20.1994C88.8362 20.5445 88.3318 20.7037 87.7744 20.7037C86.6595 20.7037 85.7569 20.279 85.1464 19.4295C84.5358 18.5801 84.2173 17.4652 84.2173 16.1114C84.2173 16.0848 90.5882 16.0848 90.5882 16.0848V16.0317C90.6678 14.7841 90.3758 13.7223 89.7122 12.9259C89.0485 12.1295 88.0664 11.7048 86.7656 11.7048C85.4649 11.7048 84.9605 11.9437 84.2173 12.395C83.474 12.8463 82.89 13.5099 82.4653 14.3594C82.0406 15.2088 81.8282 16.1645 81.8282 17.2263C81.8282 18.2881 82.014 19.0048 82.3856 19.7746C82.7573 20.5444 83.3147 21.155 84.058 21.6063C84.8013 22.0575 85.6773 22.2964 86.686 22.2964C87.6947 22.2964 88.5442 21.9779 89.2609 21.3674C89.9776 20.7568 90.4289 19.9339 90.5882 18.9252V18.8721L90.2165 18.7925V18.8455ZM84.2438 15.4743C84.3235 14.5452 84.5358 13.7754 84.9075 13.2179C85.2791 12.6605 85.7835 12.3685 86.4471 12.3685C87.1107 12.3685 87.1638 12.5277 87.4824 12.8197C87.7744 13.1383 88.0133 13.5365 88.1725 14.0143C88.3318 14.4921 88.3849 14.9699 88.3584 15.4477H84.2969L84.2438 15.4743Z" fill="#000B84"/>
<path d="M103.808 20.4914C103.781 20.5179 103.702 20.5975 103.595 20.7037C103.489 20.8099 103.357 20.8895 103.197 20.9692C103.038 21.0488 102.852 21.1019 102.64 21.1019C102.189 21.1019 101.843 20.9426 101.605 20.5975C101.366 20.2525 101.233 19.8012 101.233 19.2437V12.687H104.126V11.9968H101.233V9.31573H100.835C100.49 9.97937 100.012 10.5634 99.4543 11.0412C98.7642 11.6517 97.8085 11.9968 96.7998 11.9968H94.7293V9.31573H94.3311C93.986 9.97937 93.5082 10.5634 92.9507 11.0412C92.3933 11.5455 91.7562 11.9172 91.0925 12.2092H91.0394V12.687H92.4198V19.3234C92.4198 20.279 92.6587 21.0223 93.1631 21.5532C93.6409 22.0841 94.3311 22.3495 95.2071 22.3495C96.0831 22.3495 96.2689 22.1637 96.6936 21.7921C97.0918 21.447 97.4104 21.0754 97.5962 20.7037V20.6506L97.3838 20.4648L97.3307 20.5179C97.3042 20.5444 97.2245 20.6241 97.1184 20.7303C97.0122 20.8365 96.8794 20.9161 96.7202 20.9957C96.5609 21.0754 96.3751 21.1285 96.1627 21.1285C95.7114 21.1285 95.3664 20.9692 95.1274 20.6241C94.8885 20.279 94.7558 19.8277 94.7558 19.2703V12.7135H98.9765V19.3499C98.9765 20.3055 99.2154 21.0488 99.7198 21.5797C100.198 22.1106 100.888 22.3761 101.764 22.3761C102.64 22.3761 102.826 22.1903 103.25 21.8186C103.649 21.4735 103.967 21.1019 104.153 20.7303V20.6772L103.941 20.4914L103.887 20.5444L103.808 20.4914Z" fill="#000B84"/>
<path d="M112.276 18.8455C112.09 19.403 111.771 19.8543 111.347 20.1994C110.922 20.5445 110.391 20.7037 109.834 20.7037C108.719 20.7037 107.816 20.279 107.206 19.4295C106.595 18.5801 106.277 17.4652 106.277 16.1114C106.277 16.0848 112.647 16.0848 112.647 16.0848V16.0317C112.727 14.7841 112.435 13.7223 111.771 12.9259C111.108 12.1295 110.126 11.7048 108.825 11.7048C107.524 11.7048 107.02 11.9437 106.277 12.395C105.533 12.8463 104.949 13.5099 104.525 14.3594C104.1 15.2088 103.887 16.1645 103.887 17.2263C103.887 18.2881 104.073 19.0048 104.445 19.7746C104.817 20.5444 105.374 21.155 106.117 21.6063C106.861 22.0575 107.737 22.2964 108.745 22.2964C109.754 22.2964 110.603 21.9779 111.32 21.3674C112.037 20.7568 112.488 19.9339 112.647 18.9252V18.8721L112.276 18.7925V18.8455ZM106.303 15.4743C106.383 14.5452 106.595 13.7754 106.967 13.2179C107.338 12.6605 107.843 12.3685 108.506 12.3685C109.17 12.3685 109.223 12.5277 109.542 12.8197C109.834 13.1383 110.073 13.5365 110.232 14.0143C110.391 14.4921 110.444 14.9699 110.418 15.4477H106.356L106.303 15.4743Z" fill="#000B84"/>
<path d="M120.877 11.9968C120.585 11.7845 120.16 11.6783 119.655 11.6783C119.151 11.6783 118.461 11.9437 117.93 12.4481C117.505 12.8463 117.213 13.4037 117.001 14.0674V11.6783H116.656L113.417 12.7401V13.1383H113.497C113.577 13.1383 113.683 13.1117 113.815 13.1117C114.134 13.1117 114.346 13.1914 114.479 13.3506C114.612 13.5099 114.691 13.8019 114.691 14.2001V20.4914C114.691 20.863 114.585 21.1285 114.399 21.2612C114.214 21.4205 113.869 21.5266 113.391 21.6328H113.338V22.031H118.806V21.6328H118.753C118.063 21.5266 117.585 21.4205 117.346 21.2612C117.107 21.1285 117.001 20.863 117.001 20.4648V16.191C117.001 15.6601 117.081 15.1823 117.266 14.7841C117.426 14.3594 117.665 14.0408 117.957 13.8019C118.222 13.563 118.514 13.4568 118.833 13.4568C119.151 13.4568 119.098 13.4568 119.204 13.5365C119.31 13.5895 119.417 13.6692 119.549 13.7754C119.682 13.8815 119.815 13.9612 119.947 14.0408C120.08 14.0939 120.239 14.147 120.399 14.147C120.691 14.147 120.903 14.0408 121.089 13.8285C121.275 13.6161 121.354 13.3506 121.354 13.0055C121.354 12.6605 121.195 12.2888 120.877 12.0765V11.9968Z" fill="#000B84"/>
<path d="M133.458 8.49316C133.405 8.62589 133.325 8.67898 133.166 8.73207C133.007 8.78516 132.741 8.78517 132.396 8.78517H123.822V9.18335H123.875C124.539 9.26298 124.99 9.39571 125.229 9.58153C125.468 9.76735 125.574 10.1124 125.574 10.5637V20.4917C125.574 20.943 125.468 21.2615 125.229 21.4739C124.99 21.6862 124.539 21.819 123.875 21.8986H123.822V22.2968H130.405V21.8986H130.352C129.715 21.8455 129.211 21.7659 128.892 21.6597C128.574 21.5535 128.361 21.4208 128.229 21.235C128.122 21.0492 128.043 20.8102 128.043 20.4917V15.9524H130.379C130.883 15.9524 131.308 16.1117 131.626 16.4302C131.945 16.7488 132.184 17.2532 132.316 17.9433V17.9964H132.741L132.104 13.2183H131.706V13.2979C131.759 13.9881 131.653 14.4924 131.414 14.811C131.175 15.1295 130.777 15.2888 130.219 15.2888H128.043V9.47534H130.591C131.573 9.47534 132.343 9.71425 132.874 10.1921C133.405 10.6699 133.83 11.4928 134.095 12.6077V12.6608H134.52L133.883 8.49316H133.458Z" fill="#000B84"/>
<path d="M145.616 20.7306C145.377 21.1553 145.111 21.3677 144.846 21.3677C144.58 21.3677 144.554 21.3146 144.474 21.1819C144.368 21.0492 144.342 20.8368 144.342 20.5979V11.9441H143.996L140.758 13.0059V13.4041H140.838C140.917 13.4041 141.023 13.3775 141.156 13.3775C141.475 13.3775 141.687 13.4572 141.82 13.6164C141.952 13.7757 142.032 14.0677 142.032 14.4659V19.775C141.66 20.1732 141.289 20.4652 140.944 20.651C140.599 20.8368 140.227 20.9164 139.802 20.9164C139.378 20.9164 138.847 20.7572 138.555 20.4386C138.236 20.1201 138.103 19.6422 138.103 19.0052V11.9441H137.758L134.52 13.0059V13.4041H134.599C134.679 13.4041 134.785 13.3775 134.918 13.3775C135.236 13.3775 135.449 13.4572 135.582 13.6164C135.714 13.7757 135.794 14.0677 135.794 14.4659V19.2175C135.794 20.2528 136.059 21.0757 136.564 21.6862C137.068 22.2968 137.811 22.6153 138.767 22.6153C139.723 22.6153 139.962 22.4295 140.492 22.0313C140.997 21.6862 141.501 21.1553 142.059 20.4917V20.5979C142.059 21.235 142.271 21.7393 142.643 22.0844C143.041 22.4295 143.466 22.6153 143.943 22.6153C144.421 22.6153 144.687 22.4826 145.058 22.2437C145.43 22.0048 145.748 21.5535 146.014 20.9164V20.8633L145.695 20.7041V20.7572L145.616 20.7306Z" fill="#000B84"/>
<path d="M162.923 20.7306C162.684 21.1553 162.419 21.3677 162.154 21.3677C161.888 21.3677 161.862 21.3146 161.782 21.1819C161.676 21.0492 161.649 20.8368 161.649 20.5979V11.9441H161.304L158.066 13.0059V13.4041H158.145C158.225 13.4041 158.331 13.3775 158.464 13.3775C158.782 13.3775 158.995 13.4572 159.127 13.6164C159.26 13.7757 159.34 14.0677 159.34 14.4659V19.775C158.968 20.1732 158.596 20.4652 158.251 20.651C157.906 20.8368 157.535 20.9164 157.11 20.9164C156.685 20.9164 156.154 20.7572 155.862 20.4386C155.544 20.1201 155.411 19.6422 155.411 19.0052V12.2361H149.783V9.55498H149.385C149.04 10.2186 148.562 10.8026 148.005 11.2804C147.447 11.7848 146.81 12.1564 146.147 12.4484H146.094V12.9262H147.474V19.5626C147.474 20.5182 147.713 21.2615 148.217 21.7924C148.695 22.3233 149.385 22.5888 150.261 22.5888C151.137 22.5888 151.323 22.403 151.748 22.0313C152.146 21.6862 152.464 21.3146 152.65 20.943V20.8899L152.438 20.7041L152.385 20.7572C152.358 20.7837 152.279 20.8633 152.172 20.9695C152.066 21.0757 151.934 21.1553 151.774 21.235C151.615 21.3146 151.429 21.3677 151.217 21.3677C150.766 21.3677 150.42 21.2084 150.182 20.8633C149.943 20.5182 149.81 20.067 149.81 19.5095V12.9528H152.385C152.65 12.9528 152.81 13.0324 152.916 13.1386C153.048 13.2979 153.128 13.5899 153.128 13.9881V19.2441C153.128 20.2793 153.394 21.1022 153.898 21.7128C154.402 22.3233 155.146 22.6419 156.101 22.6419C157.057 22.6419 157.296 22.4561 157.827 22.0579C158.331 21.7128 158.835 21.1819 159.393 20.5182V20.6244C159.393 21.2615 159.605 21.7659 159.977 22.111C160.375 22.4561 160.8 22.6419 161.278 22.6419C161.755 22.6419 162.021 22.5091 162.392 22.2702C162.764 22.0313 163.083 21.5801 163.348 20.943V20.8899L163.03 20.7306V20.7837L162.923 20.7306Z" fill="#000B84"/>
<path d="M170.914 12.2626C170.595 12.0503 170.197 11.9441 169.692 11.9441C169.188 11.9441 168.498 12.2095 167.967 12.7139C167.542 13.1121 167.25 13.6695 167.038 14.3332V11.9441H166.693L163.454 13.0059V13.4041H163.534C163.614 13.4041 163.72 13.3775 163.852 13.3775C164.171 13.3775 164.383 13.4572 164.516 13.6164C164.649 13.7757 164.728 14.0677 164.728 14.4659V20.7572C164.728 21.1288 164.622 21.3942 164.436 21.527C164.251 21.6862 163.906 21.7924 163.428 21.8986H163.375V22.2968H168.843V21.8986H168.79C168.1 21.7924 167.622 21.6862 167.383 21.527C167.144 21.3942 167.038 21.1288 167.038 20.7306V16.4568C167.038 15.9259 167.118 15.4481 167.303 15.0499C167.463 14.6252 167.702 14.3066 167.994 14.0677C168.259 13.8288 168.551 13.7226 168.87 13.7226C169.188 13.7226 169.135 13.7226 169.241 13.8022C169.347 13.8553 169.454 13.935 169.586 14.0412C169.719 14.1473 169.852 14.227 169.984 14.3066C170.117 14.3597 170.276 14.4128 170.436 14.4128C170.728 14.4128 170.94 14.3066 171.126 14.0943C171.312 13.8819 171.391 13.6164 171.391 13.2713C171.391 12.9263 171.232 12.5546 170.914 12.3423V12.2626Z" fill="#000B84"/>
<path d="M179.647 19.1113C179.461 19.6688 179.143 20.1201 178.718 20.4652C178.267 20.8102 177.762 20.9695 177.205 20.9695C176.09 20.9695 175.187 20.5448 174.577 19.6953C173.966 18.8459 173.648 17.731 173.648 16.3772C173.648 16.3506 180.019 16.3506 180.019 16.3506V16.2975C180.098 15.0499 179.806 13.9881 179.143 13.1917C178.479 12.3953 177.497 11.9706 176.196 11.9706C174.895 11.9706 174.391 12.2095 173.648 12.6608C172.904 13.1121 172.32 13.7757 171.896 14.6252C171.471 15.4746 171.259 16.4302 171.259 17.4921C171.259 18.5539 171.444 19.2706 171.816 20.0404C172.188 20.8102 172.745 21.4208 173.488 21.8721C174.232 22.3233 175.108 22.5622 176.116 22.5622C177.125 22.5622 177.975 22.2437 178.691 21.6332C179.408 21.0226 179.859 20.1997 180.019 19.191V19.1379L179.647 19.0582V19.1113ZM173.674 15.7401C173.754 14.811 173.966 14.0412 174.338 13.4837C174.71 12.9263 175.214 12.6343 175.878 12.6343C176.541 12.6343 176.594 12.7935 176.913 13.0855C177.205 13.4041 177.444 13.8023 177.603 14.2801C177.762 14.7579 177.815 15.2357 177.789 15.7135H173.727L173.674 15.7401Z" fill="#000B84"/>
<path d="M188.38 17.8106C188.062 17.3593 187.664 16.9877 187.212 16.7488C186.761 16.5099 186.177 16.271 185.46 16.0055C184.93 15.8197 184.505 15.6339 184.213 15.5012C183.921 15.3684 183.682 15.1561 183.47 14.9437C183.284 14.7313 183.178 14.4393 183.178 14.1208C183.178 13.8022 183.337 13.3244 183.655 13.059C183.974 12.7935 184.372 12.6608 184.85 12.6608C185.328 12.6608 186.124 12.8997 186.682 13.351C187.239 13.8023 187.743 14.4659 188.115 15.2888C188.115 15.3153 188.513 15.3153 188.513 15.3153L187.982 11.9706H187.584V12.0237C187.584 12.2892 187.531 12.475 187.478 12.5546C187.425 12.6343 187.372 12.6873 187.292 12.6873C187.212 12.6873 187.106 12.6608 186.682 12.475C186.336 12.3157 185.991 12.183 185.699 12.1033C185.407 11.9972 185.062 11.9706 184.691 11.9706C183.735 11.9706 182.939 12.2361 182.302 12.7935C181.664 13.3244 181.346 14.0412 181.346 14.9172C181.346 15.7932 181.505 16.1117 181.797 16.5364C182.089 16.9612 182.461 17.2797 182.886 17.4921C183.31 17.7044 183.868 17.9433 184.584 18.2088C185.168 18.4212 185.62 18.607 185.938 18.7662C186.257 18.9255 186.522 19.1379 186.735 19.4033C186.947 19.6688 187.053 19.9873 187.053 20.3855C187.053 20.7837 186.867 21.235 186.549 21.5004C186.204 21.7924 185.752 21.9252 185.222 21.9252C184.691 21.9252 183.841 21.6597 183.204 21.1553C182.567 20.651 182.063 19.9077 181.691 19.0052V18.9521H181.266L181.85 22.6153H182.248V22.5622C182.302 22.2968 182.355 22.111 182.408 22.0048C182.461 21.9251 182.514 21.8721 182.594 21.8721C182.673 21.8721 182.806 21.8986 183.151 22.0844C183.523 22.2437 183.868 22.3764 184.16 22.4826C184.452 22.5888 184.823 22.6153 185.248 22.6153C185.991 22.6153 186.628 22.4826 187.186 22.2172C187.743 21.9517 188.142 21.5801 188.434 21.1288C188.726 20.6775 188.858 20.1732 188.858 19.6422C188.858 19.1113 188.699 18.315 188.38 17.8372V17.8106Z" fill="#000B84"/>
<path d="M123.159 36.1262C122.92 36.5509 122.655 36.7633 122.39 36.7633C122.124 36.7633 122.098 36.7102 122.018 36.5775C121.912 36.4448 121.885 36.2324 121.885 35.9935V27.3397H121.54L118.302 28.4015V28.7997H118.381C118.461 28.7997 118.567 28.7731 118.7 28.7731C119.018 28.7731 119.231 28.8528 119.363 29.012C119.496 29.1713 119.576 29.4633 119.576 29.8615V35.1706C119.204 35.5688 118.832 35.8608 118.487 36.0466C118.142 36.2324 117.771 36.312 117.346 36.312C116.921 36.312 116.39 36.1528 116.098 35.8342C115.78 35.5157 115.647 35.0379 115.647 34.4008V27.6317H109.754V24.9506H109.356C109.011 25.6142 108.533 26.1982 107.975 26.676C107.418 27.1804 106.781 27.552 106.117 27.844H106.064V28.3219H107.444V34.9582C107.444 35.9139 107.683 36.6571 108.188 37.188C108.666 37.7189 109.356 37.9844 110.232 37.9844C111.108 37.9844 111.294 37.7986 111.718 37.4269C112.116 37.0818 112.435 36.7102 112.621 36.3386V36.2855L112.408 36.0997L112.355 36.1528C112.329 36.1793 112.249 36.2589 112.143 36.3651C112.037 36.4713 111.904 36.5509 111.745 36.6306C111.586 36.7102 111.4 36.7633 111.187 36.7633C110.736 36.7633 110.391 36.604 110.152 36.2589C109.913 35.9139 109.78 35.4626 109.78 34.9051V28.3484H112.621C112.886 28.3484 113.046 28.428 113.152 28.5342C113.284 28.6935 113.364 28.9855 113.364 29.3837V34.6397C113.364 35.6749 113.63 36.4978 114.134 37.1084C114.638 37.7189 115.382 38.0375 116.337 38.0375C117.293 38.0375 117.532 37.8517 118.063 37.4535C118.567 37.1084 119.071 36.5775 119.629 35.9138V36.02C119.629 36.6571 119.841 37.1615 120.213 37.5066C120.611 37.8517 121.036 38.0375 121.514 38.0375C121.991 38.0375 122.257 37.9048 122.628 37.6658C123 37.4269 123.319 36.9757 123.584 36.3386V36.2855L123.266 36.1262V36.1793L123.159 36.1262Z" fill="#000B84"/>
<path d="M68.8474 25.3488H68.9005C69.5641 25.4284 70.0154 25.5611 70.2543 25.7469C70.4932 25.9328 70.5994 26.2779 70.5994 26.7291V35.8873C70.5994 36.3386 70.4932 36.6571 70.2543 36.8695C70.0154 37.0818 69.5641 37.2146 68.9005 37.2942H68.8474V37.6924H74.8467V37.2942H74.7936C74.13 37.2146 73.6787 37.0818 73.4398 36.8695C73.2009 36.6837 73.0947 36.3386 73.0947 35.8873V26.7291C73.0947 26.2779 73.2009 25.9328 73.4398 25.7469C73.6787 25.5346 74.13 25.4019 74.7936 25.3488H74.8467V24.9506H68.8474V25.3488Z" fill="#000B84"/>
<path d="M85.3587 36.9226C85.1994 36.7633 85.1198 36.4713 85.1198 36.0997V30.7375C85.1198 29.7022 84.8543 28.8793 84.3499 28.2688C83.8456 27.6582 83.1023 27.3662 82.1467 27.3662C81.191 27.3662 80.9256 27.552 80.3947 27.9502C79.8903 28.2953 79.3859 28.8262 78.8285 29.4899V27.3662H78.4834L75.2449 28.428V28.8262H75.3245C75.4041 28.8262 75.5103 28.7997 75.643 28.7997C75.9616 28.7997 76.174 28.8793 76.3067 29.0386C76.4394 29.1979 76.519 29.4899 76.519 29.888V36.1262C76.519 36.4978 76.4394 36.7633 76.2801 36.9491C76.1209 37.1084 75.8023 37.2411 75.3245 37.3208H75.2714V37.7189H80.1027V37.3208H80.0496C79.5983 37.2411 79.2798 37.1084 79.0939 36.9491C78.9347 36.7899 78.8285 36.4978 78.8285 36.1262V30.2331C79.2267 29.8084 79.5983 29.5164 79.9169 29.3306C80.2619 29.1448 80.6336 29.0651 81.0583 29.0651C81.483 29.0651 82.0139 29.2244 82.3059 29.5429C82.6245 29.8615 82.7572 30.3393 82.7572 30.9764V36.1528C82.7572 36.5244 82.6776 36.7898 82.4918 36.9757C82.3325 37.1349 82.0139 37.2677 81.5361 37.3473H81.483V37.7455H86.3143V37.3473H86.2612C85.7834 37.2677 85.4649 37.1349 85.3056 36.9757L85.3587 36.9226Z" fill="#000B84"/>
<path d="M92.7648 32.1444C92.3136 31.9055 91.7296 31.6666 91.0128 31.4011C90.4819 31.2153 90.0572 31.0295 89.7652 30.8702C89.4732 30.7375 89.2343 30.5251 89.0219 30.3128C88.8361 30.1004 88.7299 29.8084 88.7299 29.4899C88.7299 29.1713 88.8892 28.6935 89.2078 28.428C89.5263 28.1626 89.9245 28.0299 90.4023 28.0299C90.8801 28.0299 91.6765 28.2688 92.2339 28.72C92.7914 29.1713 93.2692 29.8349 93.6674 30.6579C93.6674 30.6844 94.0656 30.6844 94.0656 30.6844L93.5347 27.3397H93.1365V27.3928C93.1365 27.6582 93.0834 27.844 93.0303 27.9237C92.9772 28.0033 92.9241 28.0564 92.8445 28.0564C92.7648 28.0564 92.6587 28.0299 92.2339 27.844C91.8888 27.6848 91.5438 27.552 91.2518 27.4724C90.9598 27.3662 90.6147 27.3397 90.243 27.3397C89.2874 27.3397 88.491 27.6051 87.8539 28.1626C87.2169 28.6935 86.8983 29.4102 86.8983 30.2862C86.8983 31.1622 87.0576 31.4808 87.3496 31.9055C87.6416 32.3302 88.0132 32.6488 88.4379 32.8611C88.8627 33.0735 89.4201 33.3124 90.1368 33.5779C90.7208 33.7902 91.1721 33.976 91.4907 34.1353C91.8092 34.2946 92.0747 34.5069 92.287 34.7724C92.4994 35.0378 92.6056 35.3564 92.6056 35.7546C92.6056 36.1528 92.4198 36.604 92.1012 36.8695C91.7561 37.1615 91.3048 37.2942 90.7739 37.2942C90.243 37.2942 89.3936 37.0288 88.7565 36.5244C88.1194 36.02 87.615 35.2768 87.2434 34.3742V34.3211H86.8187L87.3761 37.9844H87.7743V37.9313C87.8274 37.6658 87.8805 37.48 87.9336 37.3738C87.9867 37.2942 88.0398 37.2411 88.1194 37.2411C88.199 37.2411 88.3318 37.2677 88.6768 37.4535C89.0485 37.6128 89.3936 37.7455 89.6856 37.8517C89.9776 37.9578 90.3492 37.9844 90.7739 37.9844C91.5172 37.9844 92.1543 37.8517 92.7118 37.5862C93.5612 37.1615 94.1187 36.4978 94.331 35.5953C94.3576 35.4626 94.3841 35.3033 94.3841 35.144C94.3841 34.3477 94.2514 33.684 93.9063 33.2062C93.5878 32.7549 93.1896 32.3833 92.7383 32.1444H92.7648Z" fill="#000B84"/>
<path d="M105.215 36.9226C105.055 36.7633 104.949 36.4713 104.949 36.0997V27.6582H99.1888C98.6845 27.6582 98.2598 27.2335 98.2598 26.7291V24.9771H97.8616C97.5165 25.6408 97.0387 26.2248 96.4812 26.7026C95.9238 27.2069 95.2867 27.5786 94.623 27.8706H94.5699V28.3484H95.9503V34.9848C95.9503 35.9404 96.1892 36.6837 96.6936 37.2146C97.1714 37.7455 97.8616 38.0109 98.7376 38.0109C99.6136 38.0109 99.7994 37.8251 100.224 37.4535C100.622 37.1084 100.941 36.7368 101.127 36.3651V36.312L100.914 36.1262L100.861 36.1793C100.835 36.2058 100.755 36.2855 100.649 36.3917C100.543 36.4978 100.41 36.5775 100.251 36.6571C100.091 36.7368 99.9056 36.7898 99.6932 36.7898C99.2419 36.7898 98.8968 36.6306 98.6579 36.2855C98.419 35.9404 98.2863 35.4891 98.2863 34.9317V28.3749H101.817C102.295 28.3749 102.321 28.4546 102.427 28.5608C102.56 28.7466 102.64 29.012 102.64 29.4102V36.1262C102.64 36.4978 102.56 36.7633 102.401 36.9491C102.242 37.1084 101.923 37.2411 101.445 37.3208H101.392V37.7189H106.223V37.3208H106.17C105.719 37.2411 105.4 37.1084 105.215 36.9491V36.9226Z" fill="#000B84"/>
<path d="M127.035 24.9506H126.637C126.292 25.6142 125.814 26.1982 125.256 26.676C124.699 27.1804 124.062 27.552 123.398 27.844H123.345V28.3219H124.726V34.9582C124.726 35.9139 124.964 36.6571 125.469 37.188C125.947 37.7189 126.637 37.9844 127.513 37.9844C128.389 37.9844 128.575 37.7986 128.999 37.4269C129.398 37.0818 129.716 36.7102 129.902 36.3386V36.2855L129.69 36.0997L129.636 36.1528C129.61 36.1793 129.53 36.2589 129.424 36.3651C129.318 36.4713 129.185 36.5509 129.026 36.6306C128.867 36.7102 128.681 36.7633 128.468 36.7633C128.017 36.7633 127.672 36.604 127.433 36.2589C127.194 35.9139 127.062 35.4626 127.062 34.9051V28.3484H129.955V27.6582H127.062V24.9771L127.035 24.9506Z" fill="#000B84"/>
<path d="M138.343 34.4538V34.5069C138.158 35.0644 137.839 35.5157 137.388 35.8608C136.936 36.2059 136.432 36.3651 135.875 36.3651C134.76 36.3651 133.857 35.9404 133.247 35.0909C132.636 34.2415 132.318 33.1266 132.318 31.7728C132.318 31.7462 138.688 31.7462 138.688 31.7462V31.6931C138.768 30.4455 138.476 29.3837 137.812 28.5873C137.149 27.791 136.167 27.3662 134.866 27.3662C133.565 27.3662 133.061 27.6051 132.318 28.0564C131.574 28.5077 130.99 29.1713 130.566 30.0208C130.141 30.8702 129.928 31.8259 129.928 32.8877C129.928 33.9495 130.114 34.6662 130.486 35.436C130.858 36.2058 131.415 36.8164 132.158 37.2677C132.902 37.7189 133.778 37.9578 134.786 37.9578C135.795 37.9578 136.644 37.6393 137.361 37.0288C138.078 36.4182 138.529 35.5953 138.688 34.5866V34.5335L138.317 34.4538H138.343ZM132.371 31.1357C132.45 30.2066 132.663 29.4368 133.034 28.8793C133.406 28.3219 133.91 28.0299 134.574 28.0299C135.238 28.0299 135.291 28.1891 135.609 28.4811C135.901 28.7997 136.14 29.1979 136.299 29.6757C136.459 30.1535 136.512 30.6313 136.485 31.1091H132.424L132.371 31.1357Z" fill="#000B84"/>
<path d="M103.436 26.5699C103.569 26.5964 103.675 26.5964 103.808 26.5964C104.232 26.5964 104.631 26.4371 104.949 26.1186C105.347 25.7204 105.507 25.1629 105.374 24.632C105.241 24.048 104.763 23.5702 104.179 23.4375C103.622 23.3048 103.064 23.464 102.693 23.8622C102.295 24.2604 102.135 24.8179 102.268 25.3488C102.401 25.9328 102.879 26.4106 103.463 26.5433L103.436 26.5699Z" fill="#000B84"/>
</svg>
