<svg width="32" height="32" viewBox="0 0 32 32" fill="none" xmlns="http://www.w3.org/2000/svg">
<rect width="32" height="32" fill="black"/>
<path d="M22.9288 15.5142H22.9201C21.5001 15.5142 20.3489 16.6402 20.3489 18.0292V20.7975C20.3489 22.1865 21.5001 23.3125 22.9201 23.3125H22.9288C24.3488 23.3125 25.5 22.1865 25.5 20.7975V18.0292C25.5 16.6402 24.3488 15.5142 22.9288 15.5142Z" fill="white"/>
<path d="M20.2712 12.037L15.4135 8.90591C14.5248 8.332 13.3427 8.95654 13.3427 9.99463V16.029C13.3427 17.0502 14.4903 17.6748 15.379 17.1431L20.2367 14.2398C21.0737 13.7419 21.0909 12.5603 20.2712 12.0286V12.037Z" fill="white"/>
<path d="M7.58761 13.8094C6.71615 13.8094 6 14.5014 6 15.3623V21.7596C6 22.612 6.70752 23.3125 7.58761 23.3125C10.271 23.3125 12.4454 21.1857 12.4454 18.5609C12.4454 15.9362 10.271 13.8094 7.58761 13.8094Z" fill="white"/>
</svg>
