<svg width="20" height="20" viewBox="0 0 20 20" fill="none" xmlns="http://www.w3.org/2000/svg">
<path d="M8.99972 4L4.77621 8.22349C4.26475 8.73494 3.8716 9.35229 3.62442 10.0321C2.18814 13.9821 6.01777 17.8117 9.96776 16.3753C10.6475 16.1281 11.2648 15.735 11.7762 15.2235L16.0193 10.9804C16.6471 10.3527 16.9997 9.50126 16.9997 8.6135V8.38998C16.9997 6.98537 16.0438 5.76101 14.6811 5.42034C13.638 5.15956 12.5345 5.46521 11.7742 6.22551L6.91394 11.0858C6.64872 11.351 6.49972 11.7107 6.49972 12.0858C6.49972 12.8668 7.1329 13.5 7.91395 13.5C8.28901 13.5 8.64872 13.351 8.91394 13.0858L13.4999 8.5" stroke="#0E0E11" stroke-linecap="round" stroke-linejoin="round"/>
</svg>
