<svg width="16" height="16" viewBox="0 0 16 16" fill="none" xmlns="http://www.w3.org/2000/svg">
<path fill-rule="evenodd" clip-rule="evenodd" d="M2.19407 2.20606C2.10169 2.16723 1.99979 2.15705 1.90156 2.17684C1.80333 2.19663 1.71332 2.24547 1.64318 2.31704C1.57305 2.38861 1.52604 2.4796 1.50825 2.57821C1.49046 2.67682 1.5027 2.7785 1.5434 2.87006L3.6054 7.50006H8.66673C8.79934 7.50006 8.92652 7.55274 9.02029 7.64651C9.11405 7.74028 9.16673 7.86745 9.16673 8.00006C9.16673 8.13267 9.11405 8.25985 9.02029 8.35362C8.92652 8.44738 8.79934 8.50006 8.66673 8.50006H3.6054L1.5434 13.1301C1.5027 13.2216 1.49046 13.3233 1.50825 13.4219C1.52604 13.5205 1.57305 13.6115 1.64318 13.6831C1.71332 13.7546 1.80333 13.8035 1.90156 13.8233C1.99979 13.8431 2.10169 13.8329 2.19407 13.7941L14.8607 8.46073C14.9513 8.4225 15.0286 8.35841 15.083 8.27647C15.1374 8.19454 15.1663 8.09839 15.1663 8.00006C15.1663 7.90173 15.1374 7.80559 15.083 7.72365C15.0286 7.64171 14.9513 7.57762 14.8607 7.5394L2.19407 2.20606Z" fill="white"/>
</svg>
