<svg width="20" height="20" viewBox="0 0 20 20" fill="none" xmlns="http://www.w3.org/2000/svg">
<path d="M6 8.99983C6.77276 8.22708 7.84409 6.85717 8.52182 5.81301C8.8599 5.29213 9 4.67645 9 4.05547C9 3.86167 9 3.67645 9 3.48375C9 2.93772 9.44151 2.49451 9.97655 2.6035C10.7101 2.75294 11.6467 3.11645 12 3.99969C12.5802 5.45017 12.1667 6.95543 12 8.00009L16.7533 7.99964C17.3931 7.99958 17.8683 8.59201 17.7296 9.21656L16.348 15.4339C16.1447 16.3489 15.3331 17 14.3957 17L6 17.0001M6 8.99983H4C3.44772 8.99983 3 9.44755 3 9.99983V16.0001C3 16.5524 3.44772 17.0001 4 17.0001H6M6 8.99983V17.0001" stroke="#0E0E11" stroke-linejoin="round"/>
</svg>
