<svg width="20" height="20" viewBox="0 0 20 20" fill="none" xmlns="http://www.w3.org/2000/svg">
<rect width="20" height="20" rx="4" fill="#2C2C2C"/>
<path d="M3.7 10V13.9375C3.7 13.9375 3.7 16.3 9.99992 16.3C16.2999 16.3 16.2999 13.9375 16.2999 13.9375V10" stroke="white"/>
<path d="M3.7 6.0625L3.7002 10.0238C3.7002 10.0238 3.70006 12.25 10 12.25C16.2999 12.25 16.2999 10 16.2999 10V6.0625" stroke="white"/>
<path d="M10 3.7C16.3 3.7 16.2999 6.0625 16.2999 6.0625C16.2999 6.0625 16.2999 8.2 9.99996 8.2C3.7 8.2 3.7 6.0625 3.7 6.0625C3.7 6.0625 3.70003 3.7 10 3.7Z" stroke="white"/>
</svg>
