<svg width="32" height="32" viewBox="0 0 32 32" fill="none" xmlns="http://www.w3.org/2000/svg">
<rect width="32" height="32" rx="4" fill="#00A1B3"/>
<path d="M13.5 21.5C12.7199 21.5 11.2638 21.9057 10.0457 22.2951C9.04813 22.614 8 21.8828 8 20.8355V12.0395C8 11.4142 8.38771 10.8545 8.97871 10.6503C10.2618 10.2071 12.4701 9.5 13.5 9.5M13.5 21.5C15 21.5 17 22.5 18.5 22.5M13.5 21.5C13.5 21.0572 13.5 20 13.5 20V10C13.5 10 13.5 9.89052 13.5 9.5M18.5 22.5C19.5299 22.5 21.7382 21.7929 23.0213 21.3497C23.6123 21.1455 24 20.5858 24 19.9605V11.1645C24 10.1172 22.9519 9.38604 21.9543 9.70495C20.7362 10.0943 19.2801 10.5 18.5 10.5M18.5 22.5C18.5 22.1095 18.5 22 18.5 22V12C18.5 12 18.5 10.8382 18.5 10.5M18.5 10.5C17 10.5 15 9.5 13.5 9.5" stroke="white" stroke-linecap="round" stroke-linejoin="round"/>
</svg>
