<svg width="48" height="48" viewBox="0 0 48 48" fill="none" xmlns="http://www.w3.org/2000/svg">
<rect width="48" height="48" rx="4" fill="#15AE5D"/>
<path d="M35.2 19.2V16C35.2 14.2327 33.7673 12.8 32 12.8H27.2M35.2 19.2V27.2M35.2 19.2H27.2M12.8 19.2V16C12.8 14.2327 14.2327 12.8 16 12.8H19.2M12.8 19.2H19.2M12.8 19.2V27.2M19.2 35.2H16C14.2327 35.2 12.8 33.7673 12.8 32V27.2M19.2 35.2H32C33.7673 35.2 35.2 33.7673 35.2 32V27.2M19.2 35.2V19.2M19.2 19.2V12.8M19.2 19.2H27.2M12.8 27.2H35.2M19.2 12.8H27.2M27.2 19.2V12.8" stroke="white" stroke-linecap="round" stroke-linejoin="round"/>
</svg>
