<svg width="20" height="20" viewBox="0 0 20 20" fill="none" xmlns="http://www.w3.org/2000/svg">
<path d="M17.333 6.80045C16.7086 5.37359 15.6803 4.15946 14.3742 3.30693C13.0681 2.4544 11.541 2.00053 9.98007 2.00098C5.82161 2.00098 2.40101 5.15823 2 9.20018" stroke="#0E0E11" stroke-linecap="round" stroke-linejoin="round"/>
<path d="M13.9899 6.80034H17.5188C17.582 6.80034 17.6446 6.78793 17.703 6.76381C17.7613 6.73969 17.8144 6.70433 17.8591 6.65977C17.9038 6.6152 17.9392 6.56229 17.9634 6.50406C17.9876 6.44583 18 6.38342 18 6.32039V2.80078M2.66626 13.1996C3.90457 16.0249 6.73088 17.9991 10.0191 17.9991C14.1784 17.9991 17.5982 14.8419 18 10.7999" stroke="#0E0E11" stroke-linecap="round" stroke-linejoin="round"/>
<path d="M6.01008 13.1992H2.48121C2.35359 13.1992 2.23119 13.2498 2.14094 13.3398C2.0507 13.4298 2 13.5519 2 13.6792V17.1988" stroke="#0E0E11" stroke-linecap="round" stroke-linejoin="round"/>
</svg>
