<svg width="20" height="20" viewBox="0 0 20 20" fill="none" xmlns="http://www.w3.org/2000/svg">
<path d="M6 11.0003C6.77276 11.773 7.84409 13.1429 8.52182 14.1871C8.8599 14.708 9 15.3236 9 15.9446C9 16.1384 9 16.3236 9 16.5163C9 17.0624 9.44151 17.5056 9.97655 17.3966C10.7101 17.2472 11.6467 16.8836 12 16.0004C12.5802 14.5499 12.1667 13.0447 12 12L16.7533 12.0005C17.3931 12.0005 17.8683 11.4081 17.7296 10.7835L16.348 4.56623C16.1447 3.65115 15.3331 3.00008 14.3957 3.00007L6 3M6 11.0003H4C3.44772 11.0003 3 10.5525 3 10.0003V4C3 3.44771 3.44772 3 4 3H6M6 11.0003V3" stroke="#0E0E11" stroke-linejoin="round"/>
</svg>
