<svg width="20" height="20" viewBox="0 0 20 20" fill="none" xmlns="http://www.w3.org/2000/svg">
<path d="M15 9L7.42819 16.5718C7.14899 16.851 6.79339 17.0413 6.40621 17.1188L2 18L2.88124 13.5938C2.95868 13.2066 3.14899 12.851 3.42819 12.5718L11 5M15 9L16.5858 7.41421C17.3668 6.63317 17.3668 5.36683 16.5858 4.58579L15.4142 3.41421C14.6332 2.63316 13.3668 2.63316 12.5858 3.41421L11 5M15 9L11 5" stroke="#0E0E11" stroke-linecap="round" stroke-linejoin="round"/>
<path d="M11 16L12.0858 17.0858C12.8668 17.8668 14.1332 17.8668 14.9142 17.0858L17.0858 14.9142C17.8668 14.1332 17.8668 12.8668 17.0858 12.0858L14.5 9.5M11 16L12.5 14.5M11 16L9.5 14.5M4 9L2.91421 7.91421C2.13316 7.13316 2.13317 5.86683 2.91421 5.08579L5.08579 2.91421C5.86684 2.13316 7.13317 2.13317 7.91421 2.91421L10.5 5.5M4 9L6 7M4 9L5.5 10.5" stroke="#0E0E11" stroke-linecap="round" stroke-linejoin="round"/>
</svg>
