<svg width="20" height="20" viewBox="0 0 20 20" fill="none" xmlns="http://www.w3.org/2000/svg">
<path d="M17.3628 9.15806H17.354C15.8975 9.15806 14.7168 10.3388 14.7168 11.7952V14.6979C14.7168 16.1543 15.8975 17.335 17.354 17.335H17.3628C18.8193 17.335 20 16.1543 20 14.6979V11.7952C20 10.3388 18.8193 9.15806 17.3628 9.15806Z" fill="#0E0E11"/>
<path d="M14.6372 5.51204L9.65487 2.22885C8.74336 1.62708 7.53097 2.28195 7.53097 3.37044V9.69788C7.53097 10.7687 8.70796 11.4235 9.61947 10.866L14.6018 7.82177C15.4602 7.29965 15.4779 6.06071 14.6372 5.50319V5.51204Z" fill="#0E0E11"/>
<path d="M1.62832 7.37044C0.734513 7.37044 0 8.09611 0 8.99876V15.7067C0 16.6005 0.725664 17.335 1.62832 17.335C4.38053 17.335 6.61062 15.105 6.61062 12.3527C6.61062 9.60053 4.38053 7.37044 1.62832 7.37044Z" fill="#0E0E11"/>
</svg>
