<svg width="20" height="20" viewBox="0 0 20 20" fill="none" xmlns="http://www.w3.org/2000/svg">
<path d="M7.5 15.5C6.71995 15.5 5.26381 15.9057 4.04571 16.2951C3.04813 16.614 2 15.8828 2 14.8355V6.0395C2 5.41423 2.38771 4.85445 2.97871 4.6503C4.26184 4.20707 6.47014 3.5 7.5 3.5M7.5 15.5C9 15.5 11 16.5 12.5 16.5M7.5 15.5C7.5 15.0572 7.5 14 7.5 14V4C7.5 4 7.5 3.89052 7.5 3.5M12.5 16.5C13.5299 16.5 15.7382 15.7929 17.0213 15.3497C17.6123 15.1455 18 14.5858 18 13.9605V5.1645C18 4.11719 16.9519 3.38604 15.9543 3.70495C14.7362 4.09435 13.2801 4.5 12.5 4.5M12.5 16.5C12.5 16.1095 12.5 16 12.5 16V6C12.5 6 12.5 4.8382 12.5 4.5M12.5 4.5C11 4.5 9 3.5 7.5 3.5" stroke="#0E0E11" stroke-linecap="round" stroke-linejoin="round"/>
</svg>
