<svg width="20" height="20" viewBox="0 0 20 20" fill="none" xmlns="http://www.w3.org/2000/svg">
<path d="M2 6.28113C2 4.88323 3.13323 3.75 4.53113 3.75H4.99222C5.61541 3.75 6.19081 3.41608 6.5 2.875C6.80919 2.33392 7.3846 2 8.00778 2H10H11.9922C12.6154 2 13.1908 2.33392 13.5 2.875C13.8092 3.41608 14.3846 3.75 15.0078 3.75H15.4689C16.8668 3.75 18 4.88323 18 6.28113V13C18 14.6569 16.6569 16 15 16H5C3.34315 16 2 14.6569 2 13V6.28113Z" stroke="#0E0E11"/>
<circle cx="10" cy="10" r="3" stroke="#0E0E11"/>
<circle cx="15.5" cy="6.5" r="0.5" stroke="#0E0E11"/>
</svg>
