<svg width="20" height="20" viewBox="0 0 20 20" fill="none" xmlns="http://www.w3.org/2000/svg">
<path d="M10 6V10H14" stroke="#0E0E11" stroke-linecap="round" stroke-linejoin="round"/>
<path d="M16.9209 8.94907C16.4141 5.58153 13.5086 2.99935 9.99961 2.99935C6.13369 2.99935 2.99994 6.1331 2.99994 9.99902C2.99994 13.8649 6.13369 16.9987 9.99961 16.9987C12.8695 16.9987 15.3369 15.2712 16.4169 12.7989" stroke="#0E0E11" stroke-linecap="round" stroke-linejoin="round"/>
<path d="M13.4994 12.7983H16.5792C16.6344 12.7983 16.689 12.8092 16.7399 12.8303C16.7909 12.8514 16.8372 12.8824 16.8762 12.9214C16.9152 12.9604 16.9461 13.0067 16.9672 13.0576C16.9883 13.1086 16.9992 13.1632 16.9992 13.2183V16.2982" stroke="#0E0E11" stroke-linecap="round" stroke-linejoin="round"/>
</svg>
