<svg width="20" height="20" viewBox="0 0 20 20" fill="none" xmlns="http://www.w3.org/2000/svg">
<path d="M15 9L9.42819 14.5718C9.14899 14.851 8.79339 15.0413 8.40621 15.1188L4 16L4.88124 11.5938C4.95868 11.2066 5.14899 10.851 5.42819 10.5718L11 5M15 9L16.5858 7.41421C17.3668 6.63317 17.3668 5.36683 16.5858 4.58579L15.4142 3.41421C14.6332 2.63316 13.3668 2.63316 12.5858 3.41421L11 5M15 9L11 5" stroke="#0E0E11" stroke-linecap="round" stroke-linejoin="round"/>
<path d="M5.66667 4.66667C5.25502 5.07832 5 6 5 6C5 6 4.74498 5.07832 4.33333 4.66667C3.92168 4.25502 3 4 3 4C3 4 3.92168 3.74498 4.33333 3.33333C4.74498 2.92168 5 2 5 2C5 2 5.25502 2.92168 5.66667 3.33333C6.07832 3.74498 7 4 7 4C7 4 6.07832 4.25502 5.66667 4.66667Z" fill="#0E0E11" stroke="#0E0E11" stroke-linejoin="round"/>
</svg>
