<svg width="20" height="20" viewBox="0 0 20 20" fill="none" xmlns="http://www.w3.org/2000/svg">
<path d="M10 18V13M10 13H14.5C14.7762 13 15.0024 12.7751 14.9807 12.4998C14.815 10.4002 13.6161 9.30471 12.6595 8.78808C12.2808 8.58353 12 8.20967 12 7.77924V6.4142C12 6.14899 12.1054 5.89463 12.2929 5.7071L13.7071 4.29289C13.8947 4.10536 14 3.851 14 3.58579V3C14 2.44772 13.5523 2 13 2H7.00001C6.44773 2 6.00001 2.44772 6.00001 3V3.58579C6.00001 3.851 6.10537 4.10536 6.2929 4.29289L7.70711 5.7071C7.89464 5.89463 8 6.14899 8 6.4142V7.96482C8 8.29917 7.83192 8.60907 7.54719 8.78435C6.56642 9.3881 5.19852 10.2763 5.01957 12.4998C4.99742 12.775 5.22386 13 5.5 13H10Z" stroke="#0E0E11" stroke-linecap="round" stroke-linejoin="round"/>
</svg>
