<svg width="20" height="20" viewBox="0 0 20 20" fill="none" xmlns="http://www.w3.org/2000/svg">
<path d="M10.7761 12.0557L8.3475 12.6628C7.73718 12.8154 7.18435 12.2626 7.33693 11.6523L7.94409 9.2236C7.98073 9.07707 8.05649 8.94326 8.16329 8.83646L13.5859 3.41389C14.3669 2.63284 15.6332 2.63284 16.4143 3.41389L16.5859 3.58546C17.3669 4.36651 17.3669 5.63284 16.5859 6.41388L11.1633 11.8365C11.0565 11.9433 10.9227 12.019 10.7761 12.0557Z" stroke="#0E0E11"/>
<path d="M17 12V15C17 16.1046 16.1046 17 15 17H5C3.89543 17 3 16.1046 3 15V5C3 3.89543 3.89543 3 5 3H8" stroke="#0E0E11" stroke-linecap="round"/>
</svg>
