<svg width="155" height="32" viewBox="0 0 155 32" fill="none" xmlns="http://www.w3.org/2000/svg">
<path d="M16 0.5H139C147.56 0.5 154.5 7.43959 154.5 16C154.5 24.5604 147.56 31.5 139 31.5H16C7.43959 31.5 0.5 24.5604 0.5 16C0.5 7.43959 7.43959 0.5 16 0.5Z" fill="#F4F4F5"/>
<path d="M16 0.5H139C147.56 0.5 154.5 7.43959 154.5 16C154.5 24.5604 147.56 31.5 139 31.5H16C7.43959 31.5 0.5 24.5604 0.5 16C0.5 7.43959 7.43959 0.5 16 0.5Z" stroke="#9D9DA0"/>
<path d="M20 16V19.75C20 19.75 20 22.0001 26 22.0001C32 22.0001 32 19.75 32 19.75V16" stroke="#0E0E11"/>
<path d="M20 12.25L20.0002 16.0228C20.0002 16.0228 20.0001 18.1429 26.0001 18.1429C32.0001 18.1429 32 16 32 16V12.25" stroke="#0E0E11"/>
<path d="M26.0001 10C32.0001 10 32.0001 12.25 32.0001 12.25C32.0001 12.25 32.0001 14.2858 26 14.2858C20 14.2858 20 12.25 20 12.25C20 12.25 20 10 26.0001 10Z" stroke="#0E0E11"/>
<path d="M39.966 10.406H44.194C44.8567 10.406 45.426 10.5273 45.902 10.77C46.3873 11.0033 46.7607 11.344 47.022 11.792C47.2927 12.24 47.428 12.772 47.428 13.388C47.428 13.7707 47.3627 14.13 47.232 14.466C47.1107 14.7927 46.9287 15.0867 46.686 15.348C46.4433 15.6 46.154 15.8007 45.818 15.95C46.1727 16.1087 46.4433 16.328 46.63 16.608C46.826 16.8787 46.9753 17.2427 47.078 17.7L47.414 19.338C47.4233 19.3753 47.428 19.4127 47.428 19.45C47.4747 19.6647 47.526 19.8607 47.582 20.038C47.6473 20.2153 47.722 20.3693 47.806 20.5H46.056C45.9813 20.388 45.9207 20.262 45.874 20.122C45.8273 19.9727 45.79 19.8187 45.762 19.66L45.482 18.036C45.4073 17.6347 45.2813 17.3127 45.104 17.07C44.9267 16.8273 44.6747 16.65 44.348 16.538C44.0213 16.4167 43.6013 16.356 43.088 16.356H41.59V20.5H39.966V10.406ZM43.984 14.914C44.3573 14.914 44.6747 14.858 44.936 14.746C45.2067 14.6247 45.412 14.4473 45.552 14.214C45.692 13.9807 45.762 13.7053 45.762 13.388C45.762 12.9027 45.6033 12.5247 45.286 12.254C44.978 11.9833 44.544 11.848 43.984 11.848H41.59V14.914H43.984ZM49.8457 16.832C49.8457 17.6067 50.0371 18.2133 50.4197 18.652C50.8024 19.0907 51.3204 19.31 51.9737 19.31C52.4311 19.31 52.8184 19.2073 53.1357 19.002C53.4624 18.7967 53.6677 18.512 53.7517 18.148H55.2497C55.1657 18.6613 54.9697 19.1047 54.6617 19.478C54.3631 19.8513 53.9757 20.136 53.4997 20.332C53.0331 20.5187 52.5104 20.612 51.9317 20.612C51.1944 20.612 50.5551 20.4393 50.0137 20.094C49.4724 19.7487 49.0571 19.2913 48.7677 18.722C48.4877 18.1527 48.3477 17.532 48.3477 16.86C48.3477 16.188 48.4831 15.5673 48.7537 14.998C49.0244 14.4287 49.4257 13.976 49.9577 13.64C50.4897 13.2947 51.1244 13.122 51.8617 13.122C52.5804 13.122 53.2011 13.2853 53.7237 13.612C54.2464 13.9293 54.6384 14.354 54.8997 14.886C55.1704 15.418 55.3011 15.992 55.2917 16.608C55.2917 16.7853 55.2824 16.9907 55.2637 17.224H49.2297V16.02H53.6537C53.6257 15.6933 53.5371 15.404 53.3877 15.152C53.2477 14.8907 53.0471 14.69 52.7857 14.55C52.5244 14.4007 52.2164 14.326 51.8617 14.326C51.4417 14.326 51.0777 14.4287 50.7697 14.634C50.4711 14.83 50.2424 15.1193 50.0837 15.502C49.9251 15.8753 49.8457 16.3187 49.8457 16.832ZM55.5723 13.234H57.1263L58.9743 18.75L60.8363 13.234H62.3623L59.7163 20.5H58.2323L55.5723 13.234ZM63.2869 13.234H64.8129V20.5H63.2869V13.234ZM63.2869 19.212H64.8129V20.5H63.2869V19.212ZM63.2869 13.234H64.3089V14.522H63.2869V13.234ZM63.2029 10.364H64.9109V12.086H63.2029V10.364ZM67.5645 16.832C67.5645 17.6067 67.7558 18.2133 68.1385 18.652C68.5212 19.0907 69.0392 19.31 69.6925 19.31C70.1498 19.31 70.5372 19.2073 70.8545 19.002C71.1812 18.7967 71.3865 18.512 71.4705 18.148H72.9685C72.8845 18.6613 72.6885 19.1047 72.3805 19.478C72.0818 19.8513 71.6945 20.136 71.2185 20.332C70.7518 20.5187 70.2292 20.612 69.6505 20.612C68.9132 20.612 68.2738 20.4393 67.7325 20.094C67.1912 19.7487 66.7758 19.2913 66.4865 18.722C66.2065 18.1527 66.0665 17.532 66.0665 16.86C66.0665 16.188 66.2018 15.5673 66.4725 14.998C66.7432 14.4287 67.1445 13.976 67.6765 13.64C68.2085 13.2947 68.8432 13.122 69.5805 13.122C70.2992 13.122 70.9198 13.2853 71.4425 13.612C71.9652 13.9293 72.3572 14.354 72.6185 14.886C72.8892 15.418 73.0198 15.992 73.0105 16.608C73.0105 16.7853 73.0012 16.9907 72.9825 17.224H66.9485V16.02H71.3725C71.3445 15.6933 71.2558 15.404 71.1065 15.152C70.9665 14.8907 70.7658 14.69 70.5045 14.55C70.2432 14.4007 69.9352 14.326 69.5805 14.326C69.1605 14.326 68.7965 14.4287 68.4885 14.634C68.1898 14.83 67.9612 15.1193 67.8025 15.502C67.6438 15.8753 67.5645 16.3187 67.5645 16.832ZM73.3874 13.234H74.9414L75.9074 16.664C76.0941 17.364 76.2387 18.008 76.3414 18.596C76.4721 18.0173 76.6494 17.378 76.8734 16.678L77.9234 13.234H79.3654L80.4294 16.692C80.6534 17.392 80.8307 18.0313 80.9614 18.61C81.0641 18.0313 81.2087 17.3827 81.3954 16.664L82.3474 13.234H83.9014L81.6474 20.5H80.2334L79.1834 17.084C78.9594 16.3747 78.7821 15.7307 78.6514 15.152C78.5114 15.7307 78.3294 16.37 78.1054 17.07L77.0414 20.5H75.6414L73.3874 13.234ZM90.9162 20.612C90.2068 20.612 89.5582 20.472 88.9702 20.192C88.3915 19.912 87.9248 19.5107 87.5702 18.988C87.2248 18.4653 87.0288 17.8587 86.9822 17.168H88.5922C88.6108 17.5507 88.7275 17.8913 88.9422 18.19C89.1568 18.4887 89.4368 18.7267 89.7822 18.904C90.1275 19.0813 90.5055 19.17 90.9162 19.17C91.3175 19.17 91.6675 19.1093 91.9662 18.988C92.2742 18.8667 92.5122 18.6987 92.6802 18.484C92.8482 18.26 92.9322 18.008 92.9322 17.728C92.9322 17.3547 92.8155 17.0513 92.5822 16.818C92.3488 16.5847 92.0222 16.4073 91.6022 16.286L89.8662 15.782C89.0822 15.5673 88.4708 15.25 88.0322 14.83C87.5935 14.4007 87.3742 13.7893 87.3742 12.996C87.3742 12.4733 87.5188 12.0067 87.8082 11.596C88.1068 11.1853 88.5175 10.868 89.0402 10.644C89.5628 10.4107 90.1602 10.294 90.8322 10.294C91.5135 10.294 92.1202 10.4107 92.6522 10.644C93.1842 10.8773 93.6088 11.218 93.9262 11.666C94.2435 12.1047 94.4255 12.618 94.4722 13.206H92.8622C92.7875 12.7673 92.5728 12.4127 92.2182 12.142C91.8635 11.862 91.4015 11.722 90.8322 11.722C90.2722 11.722 89.8335 11.834 89.5162 12.058C89.1988 12.282 89.0402 12.59 89.0402 12.982C89.0402 13.318 89.1475 13.584 89.3622 13.78C89.5768 13.9667 89.8848 14.1207 90.2862 14.242L92.0502 14.746C92.5728 14.8953 93.0162 15.082 93.3802 15.306C93.7442 15.53 94.0382 15.838 94.2622 16.23C94.4862 16.6127 94.5982 17.098 94.5982 17.686C94.5982 18.2647 94.4442 18.778 94.1362 19.226C93.8375 19.6647 93.4082 20.0053 92.8482 20.248C92.2975 20.4907 91.6535 20.612 90.9162 20.612ZM99.1284 20.612C98.4284 20.612 97.7984 20.4533 97.2384 20.136C96.6877 19.8093 96.2584 19.3613 95.9504 18.792C95.6424 18.2227 95.4884 17.5787 95.4884 16.86C95.4884 16.1413 95.6424 15.502 95.9504 14.942C96.2584 14.3727 96.6877 13.9293 97.2384 13.612C97.7984 13.2853 98.4284 13.122 99.1284 13.122C99.8284 13.122 100.454 13.2853 101.004 13.612C101.564 13.9293 102.003 14.3727 102.32 14.942C102.638 15.502 102.796 16.1413 102.796 16.86C102.796 17.5787 102.638 18.2227 102.32 18.792C102.003 19.3613 101.564 19.8093 101.004 20.136C100.454 20.4533 99.8284 20.612 99.1284 20.612ZM99.1284 19.282C99.5484 19.282 99.9124 19.1793 100.22 18.974C100.538 18.7687 100.785 18.484 100.962 18.12C101.14 17.7467 101.228 17.3267 101.228 16.86C101.228 16.3933 101.14 15.978 100.962 15.614C100.785 15.25 100.533 14.9653 100.206 14.76C99.889 14.5547 99.5297 14.452 99.1284 14.452C98.727 14.452 98.363 14.5547 98.0364 14.76C97.719 14.9653 97.4717 15.2547 97.2944 15.628C97.1264 15.992 97.0424 16.4027 97.0424 16.86C97.0424 17.336 97.1264 17.756 97.2944 18.12C97.4717 18.484 97.719 18.7687 98.0364 18.974C98.3537 19.1793 98.7177 19.282 99.1284 19.282ZM110.525 20.5H108.999V19.268C108.737 19.688 108.397 20.0193 107.977 20.262C107.566 20.4953 107.104 20.612 106.591 20.612C106.077 20.612 105.625 20.5047 105.233 20.29C104.841 20.0753 104.533 19.772 104.309 19.38C104.085 18.988 103.973 18.5353 103.973 18.022V13.234H105.499V17.686C105.499 18.1527 105.634 18.5307 105.905 18.82C106.175 19.1 106.539 19.24 106.997 19.24C107.407 19.24 107.762 19.128 108.061 18.904C108.359 18.68 108.588 18.358 108.747 17.938C108.915 17.518 108.999 17.014 108.999 16.426V13.234H110.525V20.5ZM116.476 14.62C116.252 14.564 116.009 14.536 115.748 14.536C115.374 14.536 115.034 14.6527 114.726 14.886C114.418 15.1193 114.17 15.4833 113.984 15.978C113.797 16.4633 113.704 17.0653 113.704 17.784V20.5H112.178V13.234H113.704V14.62C113.872 14.1907 114.17 13.836 114.6 13.556C115.029 13.2667 115.477 13.122 115.944 13.122C116.168 13.122 116.345 13.136 116.476 13.164V14.62ZM112.178 19.212H113.704V20.5H112.178V19.212ZM112.178 13.234H112.822V14.522H112.178V13.234ZM120.278 20.612C119.578 20.612 118.957 20.458 118.416 20.15C117.874 19.8327 117.45 19.3893 117.142 18.82C116.843 18.2507 116.694 17.5973 116.694 16.86C116.694 16.1227 116.843 15.474 117.142 14.914C117.45 14.3447 117.874 13.906 118.416 13.598C118.957 13.2807 119.578 13.122 120.278 13.122C120.866 13.122 121.388 13.2247 121.846 13.43C122.312 13.6353 122.69 13.9433 122.98 14.354C123.278 14.7647 123.47 15.264 123.554 15.852H122.056C121.981 15.4413 121.78 15.1053 121.454 14.844C121.136 14.5827 120.754 14.452 120.306 14.452C119.895 14.452 119.536 14.55 119.228 14.746C118.92 14.942 118.677 15.2267 118.5 15.6C118.332 15.964 118.248 16.384 118.248 16.86C118.248 17.588 118.434 18.176 118.808 18.624C119.19 19.0627 119.69 19.282 120.306 19.282C120.763 19.282 121.146 19.156 121.454 18.904C121.771 18.652 121.972 18.2927 122.056 17.826H123.554C123.414 18.75 123.054 19.4453 122.476 19.912C121.897 20.3787 121.164 20.612 120.278 20.612ZM125.82 16.832C125.82 17.6067 126.012 18.2133 126.394 18.652C126.777 19.0907 127.295 19.31 127.948 19.31C128.406 19.31 128.793 19.2073 129.11 19.002C129.437 18.7967 129.642 18.512 129.726 18.148H131.224C131.14 18.6613 130.944 19.1047 130.636 19.478C130.338 19.8513 129.95 20.136 129.474 20.332C129.008 20.5187 128.485 20.612 127.906 20.612C127.169 20.612 126.53 20.4393 125.988 20.094C125.447 19.7487 125.032 19.2913 124.742 18.722C124.462 18.1527 124.322 17.532 124.322 16.86C124.322 16.188 124.458 15.5673 124.728 14.998C124.999 14.4287 125.4 13.976 125.932 13.64C126.464 13.2947 127.099 13.122 127.836 13.122C128.555 13.122 129.176 13.2853 129.698 13.612C130.221 13.9293 130.613 14.354 130.874 14.886C131.145 15.418 131.276 15.992 131.266 16.608C131.266 16.7853 131.257 16.9907 131.238 17.224H125.204V16.02H129.628C129.6 15.6933 129.512 15.404 129.362 15.152C129.222 14.8907 129.022 14.69 128.76 14.55C128.499 14.4007 128.191 14.326 127.836 14.326C127.416 14.326 127.052 14.4287 126.744 14.634C126.446 14.83 126.217 15.1193 126.058 15.502C125.9 15.8753 125.82 16.3187 125.82 16.832ZM135.125 20.612C134.528 20.612 133.996 20.5047 133.529 20.29C133.072 20.066 132.708 19.758 132.437 19.366C132.176 18.974 132.036 18.5307 132.017 18.036H133.515C133.534 18.372 133.692 18.666 133.991 18.918C134.299 19.17 134.677 19.296 135.125 19.296C135.526 19.296 135.848 19.212 136.091 19.044C136.343 18.876 136.469 18.666 136.469 18.414C136.469 18.1807 136.39 17.9987 136.231 17.868C136.082 17.728 135.862 17.6253 135.573 17.56L134.369 17.28C133.753 17.14 133.258 16.9113 132.885 16.594C132.521 16.2673 132.339 15.7913 132.339 15.166C132.339 14.7833 132.446 14.438 132.661 14.13C132.885 13.822 133.198 13.5793 133.599 13.402C134 13.2153 134.462 13.122 134.985 13.122C135.498 13.122 135.96 13.2153 136.371 13.402C136.791 13.5793 137.132 13.8407 137.393 14.186C137.664 14.522 137.827 14.9187 137.883 15.376H136.385C136.348 15.068 136.194 14.8253 135.923 14.648C135.662 14.4613 135.349 14.368 134.985 14.368C134.649 14.368 134.378 14.4427 134.173 14.592C133.968 14.732 133.865 14.9233 133.865 15.166C133.865 15.3527 133.94 15.516 134.089 15.656C134.238 15.7867 134.448 15.88 134.719 15.936L135.923 16.202C136.595 16.3513 137.113 16.5847 137.477 16.902C137.841 17.21 138.023 17.7 138.023 18.372C138.023 18.792 137.902 19.1747 137.659 19.52C137.416 19.856 137.076 20.122 136.637 20.318C136.198 20.514 135.694 20.612 135.125 20.612Z" fill="#0E0E11"/>
</svg>
