<svg width="115" height="36" viewBox="0 0 115 36" fill="none" xmlns="http://www.w3.org/2000/svg">
<path d="M0 18C0 8.05888 8.05888 0 18 0H97C106.941 0 115 8.05888 115 18C115 27.9411 106.941 36 97 36H18C8.05888 36 0 27.9411 0 18Z" fill="#F4F4F5"/>
<mask id="path-2-inside-1_23_5081" fill="white">
<path d="M0 0.5H75V35.5H0V0.5Z"/>
</mask>
<path d="M75 0.5H74V35.5H75H76V0.5H75Z" fill="#E4E4E7" mask="url(#path-2-inside-1_23_5081)"/>
<path d="M20.864 23.628C20.0533 23.628 19.312 23.468 18.64 23.148C17.9787 22.828 17.4453 22.3693 17.04 21.772C16.6453 21.1747 16.4213 20.4813 16.368 19.692H18.208C18.2293 20.1293 18.3627 20.5187 18.608 20.86C18.8533 21.2013 19.1733 21.4733 19.568 21.676C19.9627 21.8787 20.3947 21.98 20.864 21.98C21.3227 21.98 21.7227 21.9107 22.064 21.772C22.416 21.6333 22.688 21.4413 22.88 21.196C23.072 20.94 23.168 20.652 23.168 20.332C23.168 19.9053 23.0347 19.5587 22.768 19.292C22.5013 19.0253 22.128 18.8227 21.648 18.684L19.664 18.108C18.768 17.8627 18.0693 17.5 17.568 17.02C17.0667 16.5293 16.816 15.8307 16.816 14.924C16.816 14.3267 16.9813 13.7933 17.312 13.324C17.6533 12.8547 18.1227 12.492 18.72 12.236C19.3173 11.9693 20 11.836 20.768 11.836C21.5467 11.836 22.24 11.9693 22.848 12.236C23.456 12.5027 23.9413 12.892 24.304 13.404C24.6667 13.9053 24.8747 14.492 24.928 15.164H23.088C23.0027 14.6627 22.7573 14.2573 22.352 13.948C21.9467 13.628 21.4187 13.468 20.768 13.468C20.128 13.468 19.6267 13.596 19.264 13.852C18.9013 14.108 18.72 14.46 18.72 14.908C18.72 15.292 18.8427 15.596 19.088 15.82C19.3333 16.0333 19.6853 16.2093 20.144 16.348L22.16 16.924C22.7573 17.0947 23.264 17.308 23.68 17.564C24.096 17.82 24.432 18.172 24.688 18.62C24.944 19.0573 25.072 19.612 25.072 20.284C25.072 20.9453 24.896 21.532 24.544 22.044C24.2027 22.5453 23.712 22.9347 23.072 23.212C22.4427 23.4893 21.7067 23.628 20.864 23.628ZM26.5534 11.836H28.2974V16.604C28.596 16.124 28.98 15.7507 29.4494 15.484C29.9294 15.2067 30.4627 15.068 31.0494 15.068C31.636 15.068 32.1534 15.1907 32.6014 15.436C33.06 15.6813 33.412 16.028 33.6574 16.476C33.9134 16.924 34.0414 17.4413 34.0414 18.028V23.5H32.3134V18.412C32.3134 17.8893 32.1534 17.4627 31.8334 17.132C31.524 16.8013 31.108 16.636 30.5854 16.636C30.116 16.636 29.7107 16.764 29.3694 17.02C29.028 17.276 28.7614 17.6493 28.5694 18.14C28.388 18.62 28.2974 19.1907 28.2974 19.852V23.5H26.5534V11.836ZM38.2659 23.628C37.7112 23.628 37.2152 23.5267 36.7779 23.324C36.3512 23.1213 36.0152 22.8387 35.7699 22.476C35.5245 22.1133 35.4019 21.7027 35.4019 21.244C35.4019 20.5293 35.6472 19.9533 36.1379 19.516C36.6285 19.0787 37.3325 18.796 38.2499 18.668L40.0259 18.444C40.2605 18.4013 40.4365 18.3267 40.5539 18.22C40.6819 18.1027 40.7459 17.9427 40.7459 17.74C40.7459 17.3773 40.5859 17.0733 40.2659 16.828C39.9565 16.5827 39.5352 16.46 39.0019 16.46C38.4899 16.46 38.0685 16.588 37.7379 16.844C37.4072 17.1 37.2205 17.452 37.1779 17.9H35.4659C35.5299 17.324 35.7112 16.8227 36.0099 16.396C36.3192 15.9693 36.7299 15.644 37.2419 15.42C37.7539 15.1853 38.3405 15.068 39.0019 15.068C39.7059 15.068 40.3192 15.196 40.8419 15.452C41.3752 15.6973 41.7805 16.0547 42.0579 16.524C42.3459 16.9827 42.4899 17.5213 42.4899 18.14V21.436C42.4899 21.6707 42.5379 21.8413 42.6339 21.948C42.7299 22.044 42.8685 22.092 43.0499 22.092C43.1245 22.092 43.2099 22.0813 43.3059 22.06V23.5C43.0072 23.564 42.7352 23.596 42.4899 23.596C42.0525 23.596 41.6952 23.4893 41.4179 23.276C41.1405 23.052 40.9859 22.7213 40.9539 22.284C40.7512 22.7 40.4099 23.0307 39.9299 23.276C39.4499 23.5107 38.8952 23.628 38.2659 23.628ZM38.5379 22.268C39.2419 22.268 39.7912 22.0493 40.1859 21.612C40.5912 21.164 40.7939 20.5773 40.7939 19.852V19.548L38.5379 19.916C38.0792 19.98 37.7325 20.1187 37.4979 20.332C37.2632 20.5453 37.1459 20.828 37.1459 21.18C37.1459 21.5 37.2739 21.7613 37.5299 21.964C37.7859 22.1667 38.1219 22.268 38.5379 22.268ZM49.3716 16.78C49.1156 16.716 48.8383 16.684 48.5396 16.684C48.113 16.684 47.7236 16.8173 47.3716 17.084C47.0196 17.3507 46.737 17.7667 46.5236 18.332C46.3103 18.8867 46.2036 19.5747 46.2036 20.396V23.5H44.4596V15.196H46.2036V16.78C46.3956 16.2893 46.737 15.884 47.2276 15.564C47.7183 15.2333 48.2303 15.068 48.7636 15.068C49.0196 15.068 49.2223 15.084 49.3716 15.116V16.78ZM44.4596 22.028H46.2036V23.5H44.4596V22.028ZM44.4596 15.196H45.1956V16.668H44.4596V15.196ZM51.317 19.308C51.317 20.1933 51.5357 20.8867 51.973 21.388C52.4103 21.8893 53.0023 22.14 53.749 22.14C54.2717 22.14 54.7143 22.0227 55.077 21.788C55.4503 21.5533 55.685 21.228 55.781 20.812H57.493C57.397 21.3987 57.173 21.9053 56.821 22.332C56.4797 22.7587 56.037 23.084 55.493 23.308C54.9597 23.5213 54.3623 23.628 53.701 23.628C52.8583 23.628 52.1277 23.4307 51.509 23.036C50.8903 22.6413 50.4157 22.1187 50.085 21.468C49.765 20.8173 49.605 20.108 49.605 19.34C49.605 18.572 49.7597 17.8627 50.069 17.212C50.3783 16.5613 50.837 16.044 51.445 15.66C52.053 15.2653 52.7783 15.068 53.621 15.068C54.4423 15.068 55.1517 15.2547 55.749 15.628C56.3463 15.9907 56.7943 16.476 57.093 17.084C57.4023 17.692 57.5517 18.348 57.541 19.052C57.541 19.2547 57.5303 19.4893 57.509 19.756H50.613V18.38H55.669C55.637 18.0067 55.5357 17.676 55.365 17.388C55.205 17.0893 54.9757 16.86 54.677 16.7C54.3783 16.5293 54.0263 16.444 53.621 16.444C53.141 16.444 52.725 16.5613 52.373 16.796C52.0317 17.02 51.7703 17.3507 51.589 17.788C51.4077 18.2147 51.317 18.7213 51.317 19.308Z" fill="#0E0E11"/>
<path fill-rule="evenodd" clip-rule="evenodd" d="M89.1401 15.2664C89.3842 15.0224 89.7799 15.0224 90.024 15.2664L94.8514 20.0938C94.9327 20.1752 95.0647 20.1752 95.146 20.0938L99.9734 15.2664C100.217 15.0224 100.613 15.0224 100.857 15.2664C101.101 15.5105 101.101 15.9062 100.857 16.1503L96.0299 20.9777C95.4604 21.5472 94.537 21.5472 93.9675 20.9777L89.1401 16.1503C88.896 15.9062 88.896 15.5105 89.1401 15.2664Z" fill="black" fill-opacity="0.9"/>
</svg>
