<svg width="607" height="248" viewBox="0 0 607 248" fill="none" xmlns="http://www.w3.org/2000/svg">
<rect x="0.5" y="0.5" width="606" height="247" rx="9.5" fill="white"/>
<rect x="0.5" y="0.5" width="606" height="247" rx="9.5" stroke="#CCCCCF"/>
<path d="M14.162 17.522H16.34L18.536 25.604C18.764 26.516 18.944 27.35 19.076 28.106C19.22 27.35 19.406 26.516 19.634 25.604L21.812 17.522H24.242L26.384 25.586C26.6 26.498 26.78 27.332 26.924 28.088C27.08 27.308 27.266 26.474 27.482 25.586L29.642 17.522H31.766L28.04 30.5H25.682L23.558 22.76C23.318 21.848 23.132 21.014 23 20.258C22.844 21.014 22.64 21.848 22.388 22.76L20.228 30.5H17.906L14.162 17.522ZM33.5317 17.378H35.4937V22.742C35.8297 22.202 36.2617 21.782 36.7897 21.482C37.3297 21.17 37.9297 21.014 38.5897 21.014C39.2497 21.014 39.8317 21.152 40.3357 21.428C40.8517 21.704 41.2477 22.094 41.5237 22.598C41.8117 23.102 41.9557 23.684 41.9557 24.344V30.5H40.0117V24.776C40.0117 24.188 39.8317 23.708 39.4717 23.336C39.1237 22.964 38.6557 22.778 38.0677 22.778C37.5397 22.778 37.0837 22.922 36.6997 23.21C36.3157 23.498 36.0157 23.918 35.7997 24.47C35.5957 25.01 35.4937 25.652 35.4937 26.396V30.5H33.5317V17.378ZM44.5482 21.158H46.5103V30.5H44.5482V21.158ZM44.5482 28.844H46.5103V30.5H44.5482V28.844ZM44.5482 21.158H45.8622V22.814H44.5482V21.158ZM44.4402 17.468H46.6363V19.682H44.4402V17.468ZM53.288 30.644C52.388 30.644 51.59 30.446 50.894 30.05C50.198 29.642 49.652 29.072 49.256 28.34C48.872 27.608 48.68 26.768 48.68 25.82C48.68 24.872 48.872 24.038 49.256 23.318C49.652 22.586 50.198 22.022 50.894 21.626C51.59 21.218 52.388 21.014 53.288 21.014C54.044 21.014 54.716 21.146 55.304 21.41C55.904 21.674 56.39 22.07 56.762 22.598C57.146 23.126 57.392 23.768 57.5 24.524H55.574C55.478 23.996 55.22 23.564 54.8 23.228C54.392 22.892 53.9 22.724 53.324 22.724C52.796 22.724 52.334 22.85 51.938 23.102C51.542 23.354 51.23 23.72 51.002 24.2C50.786 24.668 50.678 25.208 50.678 25.82C50.678 26.756 50.918 27.512 51.398 28.088C51.89 28.652 52.532 28.934 53.324 28.934C53.912 28.934 54.404 28.772 54.8 28.448C55.208 28.124 55.466 27.662 55.574 27.062H57.5C57.32 28.25 56.858 29.144 56.114 29.744C55.37 30.344 54.428 30.644 53.288 30.644ZM59.5501 17.378H61.5121V22.742C61.8481 22.202 62.2801 21.782 62.8081 21.482C63.3481 21.17 63.9481 21.014 64.6081 21.014C65.2681 21.014 65.8501 21.152 66.3541 21.428C66.8701 21.704 67.2661 22.094 67.5421 22.598C67.8301 23.102 67.9741 23.684 67.9741 24.344V30.5H66.0301V24.776C66.0301 24.188 65.8501 23.708 65.4901 23.336C65.1421 22.964 64.6741 22.778 64.0861 22.778C63.5581 22.778 63.1021 22.922 62.7181 23.21C62.3341 23.498 62.0341 23.918 61.8181 24.47C61.6141 25.01 61.5121 25.652 61.5121 26.396V30.5H59.5501V17.378ZM73.5988 21.158H75.5968L76.8388 25.568C77.0788 26.468 77.2648 27.296 77.3968 28.052C77.5648 27.308 77.7928 26.486 78.0808 25.586L79.4308 21.158H81.2848L82.6528 25.604C82.9408 26.504 83.1688 27.326 83.3368 28.07C83.4688 27.326 83.6548 26.492 83.8948 25.568L85.1188 21.158H87.1168L84.2188 30.5H82.4008L81.0508 26.108C80.7628 25.196 80.5348 24.368 80.3668 23.624C80.1868 24.368 79.9528 25.19 79.6648 26.09L78.2968 30.5H76.4968L73.5988 21.158ZM91.3272 30.644C90.7032 30.644 90.1452 30.53 89.6532 30.302C89.1732 30.074 88.7952 29.756 88.5192 29.348C88.2432 28.94 88.1052 28.478 88.1052 27.962C88.1052 27.158 88.3812 26.51 88.9332 26.018C89.4852 25.526 90.2772 25.208 91.3092 25.064L93.3072 24.812C93.5712 24.764 93.7692 24.68 93.9012 24.56C94.0452 24.428 94.1172 24.248 94.1172 24.02C94.1172 23.612 93.9372 23.27 93.5772 22.994C93.2292 22.718 92.7552 22.58 92.1552 22.58C91.5792 22.58 91.1052 22.724 90.7332 23.012C90.3612 23.3 90.1512 23.696 90.1032 24.2H88.1772C88.2492 23.552 88.4532 22.988 88.7892 22.508C89.1372 22.028 89.5992 21.662 90.1752 21.41C90.7512 21.146 91.4112 21.014 92.1552 21.014C92.9472 21.014 93.6372 21.158 94.2252 21.446C94.8252 21.722 95.2812 22.124 95.5932 22.652C95.9172 23.168 96.0792 23.774 96.0792 24.47V28.178C96.0792 28.442 96.1332 28.634 96.2412 28.754C96.3492 28.862 96.5052 28.916 96.7092 28.916C96.7932 28.916 96.8892 28.904 96.9972 28.88V30.5C96.6612 30.572 96.3552 30.608 96.0792 30.608C95.5872 30.608 95.1852 30.488 94.8732 30.248C94.5612 29.996 94.3872 29.624 94.3512 29.132C94.1232 29.6 93.7392 29.972 93.1992 30.248C92.6592 30.512 92.0352 30.644 91.3272 30.644ZM91.6332 29.114C92.4252 29.114 93.0432 28.868 93.4872 28.376C93.9432 27.872 94.1712 27.212 94.1712 26.396V26.054L91.6332 26.468C91.1172 26.54 90.7272 26.696 90.4632 26.936C90.1992 27.176 90.0672 27.494 90.0672 27.89C90.0672 28.25 90.2112 28.544 90.4992 28.772C90.7872 29 91.1652 29.114 91.6332 29.114ZM97.4781 21.158H99.4761L102.122 28.484L101.294 30.95L97.4781 21.158ZM106.496 21.158L102.68 31.13C102.332 32.042 101.888 32.75 101.348 33.254C100.82 33.758 100.1 34.01 99.1881 34.01C98.9841 34.01 98.7741 33.992 98.5581 33.956C98.3541 33.92 98.1681 33.878 98.0001 33.83V32.138C98.1441 32.186 98.2941 32.222 98.4501 32.246C98.6181 32.282 98.8101 32.3 99.0261 32.3C99.3741 32.3 99.6801 32.24 99.9441 32.12C100.208 32 100.442 31.808 100.646 31.544C100.85 31.292 101.042 30.908 101.222 30.392L104.498 21.158H106.496ZM110.845 21.158H112.843L114.085 25.568C114.325 26.468 114.511 27.296 114.643 28.052C114.811 27.308 115.039 26.486 115.327 25.586L116.677 21.158H118.531L119.899 25.604C120.187 26.504 120.415 27.326 120.583 28.07C120.715 27.326 120.901 26.492 121.141 25.568L122.365 21.158H124.363L121.465 30.5H119.647L118.297 26.108C118.009 25.196 117.781 24.368 117.613 23.624C117.433 24.368 117.199 25.19 116.911 26.09L115.543 30.5H113.743L110.845 21.158ZM130.014 30.644C129.114 30.644 128.304 30.44 127.584 30.032C126.876 29.612 126.324 29.036 125.928 28.304C125.532 27.572 125.334 26.744 125.334 25.82C125.334 24.896 125.532 24.074 125.928 23.354C126.324 22.622 126.876 22.052 127.584 21.644C128.304 21.224 129.114 21.014 130.014 21.014C130.914 21.014 131.718 21.224 132.426 21.644C133.146 22.052 133.71 22.622 134.118 23.354C134.526 24.074 134.73 24.896 134.73 25.82C134.73 26.744 134.526 27.572 134.118 28.304C133.71 29.036 133.146 29.612 132.426 30.032C131.718 30.44 130.914 30.644 130.014 30.644ZM130.014 28.934C130.554 28.934 131.022 28.802 131.418 28.538C131.826 28.274 132.144 27.908 132.372 27.44C132.6 26.96 132.714 26.42 132.714 25.82C132.714 25.22 132.6 24.686 132.372 24.218C132.144 23.75 131.82 23.384 131.4 23.12C130.992 22.856 130.53 22.724 130.014 22.724C129.498 22.724 129.03 22.856 128.61 23.12C128.202 23.384 127.884 23.756 127.656 24.236C127.44 24.704 127.332 25.232 127.332 25.82C127.332 26.432 127.44 26.972 127.656 27.44C127.884 27.908 128.202 28.274 128.61 28.538C129.018 28.802 129.486 28.934 130.014 28.934ZM145.206 30.5H143.244V28.916C142.908 29.456 142.47 29.882 141.93 30.194C141.402 30.494 140.808 30.644 140.148 30.644C139.488 30.644 138.906 30.506 138.402 30.23C137.898 29.954 137.502 29.564 137.214 29.06C136.926 28.556 136.782 27.974 136.782 27.314V21.158H138.744V26.882C138.744 27.482 138.918 27.968 139.266 28.34C139.614 28.7 140.082 28.88 140.67 28.88C141.198 28.88 141.654 28.736 142.038 28.448C142.422 28.16 142.716 27.746 142.92 27.206C143.136 26.666 143.244 26.018 143.244 25.262V21.158H145.206V30.5ZM147.871 17.378H149.833V30.5H147.871V17.378ZM147.871 28.844H149.833V30.5H147.871V28.844ZM147.871 17.378H149.185V19.034H147.871V17.378ZM156.467 30.644C155.543 30.644 154.745 30.44 154.073 30.032C153.401 29.624 152.885 29.054 152.525 28.322C152.177 27.59 152.003 26.756 152.003 25.82C152.003 24.884 152.183 24.056 152.543 23.336C152.903 22.604 153.413 22.034 154.073 21.626C154.745 21.218 155.531 21.014 156.431 21.014C157.019 21.014 157.565 21.14 158.069 21.392C158.585 21.632 158.987 21.95 159.275 22.346V17.378H161.237V30.5H159.275V29.294C159.059 29.678 158.693 30.002 158.177 30.266C157.661 30.518 157.091 30.644 156.467 30.644ZM156.719 28.934C157.247 28.934 157.715 28.808 158.123 28.556C158.531 28.292 158.849 27.926 159.077 27.458C159.305 26.99 159.419 26.444 159.419 25.82C159.419 25.208 159.305 24.668 159.077 24.2C158.849 23.732 158.531 23.372 158.123 23.12C157.715 22.856 157.247 22.724 156.719 22.724C156.179 22.724 155.705 22.856 155.297 23.12C154.889 23.372 154.571 23.732 154.343 24.2C154.127 24.668 154.019 25.208 154.019 25.82C154.019 26.432 154.127 26.978 154.343 27.458C154.571 27.926 154.889 28.292 155.297 28.556C155.705 28.808 156.179 28.934 156.719 28.934ZM168.194 17.378H170.156V30.5H168.194V17.378ZM168.194 28.844H170.156V30.5H168.194V28.844ZM168.194 17.378H169.508V19.034H168.194V17.378ZM172.83 21.158H174.792V30.5H172.83V21.158ZM172.83 28.844H174.792V30.5H172.83V28.844ZM172.83 21.158H174.144V22.814H172.83V21.158ZM172.722 17.468H174.918V19.682H172.722V17.468ZM177.466 17.378H179.428V24.722L183.172 21.158H185.908L182.038 24.794L186.196 30.5H183.748L180.67 26.108L179.428 27.26V30.5H177.466V17.378ZM188.392 25.784C188.392 26.78 188.638 27.56 189.13 28.124C189.622 28.688 190.288 28.97 191.128 28.97C191.716 28.97 192.214 28.838 192.622 28.574C193.042 28.31 193.306 27.944 193.414 27.476H195.34C195.232 28.136 194.98 28.706 194.584 29.186C194.2 29.666 193.702 30.032 193.09 30.284C192.49 30.524 191.818 30.644 191.074 30.644C190.126 30.644 189.304 30.422 188.608 29.978C187.912 29.534 187.378 28.946 187.006 28.214C186.646 27.482 186.466 26.684 186.466 25.82C186.466 24.956 186.64 24.158 186.988 23.426C187.336 22.694 187.852 22.112 188.536 21.68C189.22 21.236 190.036 21.014 190.984 21.014C191.908 21.014 192.706 21.224 193.378 21.644C194.05 22.052 194.554 22.598 194.89 23.282C195.238 23.966 195.406 24.704 195.394 25.496C195.394 25.724 195.382 25.988 195.358 26.288H187.6V24.74H193.288C193.252 24.32 193.138 23.948 192.946 23.624C192.766 23.288 192.508 23.03 192.172 22.85C191.836 22.658 191.44 22.562 190.984 22.562C190.444 22.562 189.976 22.694 189.58 22.958C189.196 23.21 188.902 23.582 188.698 24.074C188.494 24.554 188.392 25.124 188.392 25.784ZM201.849 21.158H203.811V22.76C204.075 22.22 204.435 21.794 204.891 21.482C205.359 21.17 205.917 21.014 206.565 21.014C207.321 21.014 207.957 21.176 208.473 21.5C209.001 21.812 209.361 22.268 209.553 22.868C209.817 22.328 210.219 21.884 210.759 21.536C211.299 21.188 211.917 21.014 212.613 21.014C213.273 21.014 213.849 21.146 214.341 21.41C214.845 21.674 215.229 22.052 215.493 22.544C215.769 23.024 215.907 23.576 215.907 24.2V30.5H213.945V24.686C213.945 24.074 213.777 23.594 213.441 23.246C213.117 22.886 212.661 22.706 212.073 22.706C211.377 22.706 210.831 22.988 210.435 23.552C210.051 24.116 209.859 24.86 209.859 25.784V30.5H207.897V24.686C207.897 24.074 207.735 23.594 207.411 23.246C207.087 22.886 206.631 22.706 206.043 22.706C205.575 22.706 205.173 22.838 204.837 23.102C204.513 23.354 204.261 23.714 204.081 24.182C203.901 24.65 203.811 25.184 203.811 25.784V30.5H201.849V21.158ZM219.877 25.784C219.877 26.78 220.123 27.56 220.615 28.124C221.107 28.688 221.773 28.97 222.613 28.97C223.201 28.97 223.699 28.838 224.107 28.574C224.527 28.31 224.791 27.944 224.899 27.476H226.825C226.717 28.136 226.465 28.706 226.069 29.186C225.685 29.666 225.187 30.032 224.575 30.284C223.975 30.524 223.303 30.644 222.559 30.644C221.611 30.644 220.789 30.422 220.093 29.978C219.397 29.534 218.863 28.946 218.491 28.214C218.131 27.482 217.951 26.684 217.951 25.82C217.951 24.956 218.125 24.158 218.473 23.426C218.821 22.694 219.337 22.112 220.021 21.68C220.705 21.236 221.521 21.014 222.469 21.014C223.393 21.014 224.191 21.224 224.863 21.644C225.535 22.052 226.039 22.598 226.375 23.282C226.723 23.966 226.891 24.704 226.879 25.496C226.879 25.724 226.867 25.988 226.843 26.288H219.085V24.74H224.773C224.737 24.32 224.623 23.948 224.431 23.624C224.251 23.288 223.993 23.03 223.657 22.85C223.321 22.658 222.925 22.562 222.469 22.562C221.929 22.562 221.461 22.694 221.065 22.958C220.681 23.21 220.387 23.582 220.183 24.074C219.979 24.554 219.877 25.124 219.877 25.784ZM236.834 30.644C235.874 30.644 235.118 30.392 234.566 29.888C234.014 29.384 233.738 28.646 233.738 27.674V22.814H232.082V21.158H233.738V18.368H235.7V21.158H237.968V22.814H235.7V27.512C235.7 27.968 235.82 28.322 236.06 28.574C236.3 28.814 236.624 28.934 237.032 28.934C237.2 28.934 237.362 28.922 237.518 28.898C237.686 28.862 237.836 28.826 237.968 28.79V30.5C237.62 30.596 237.242 30.644 236.834 30.644ZM243.868 30.644C242.968 30.644 242.158 30.44 241.438 30.032C240.73 29.612 240.178 29.036 239.782 28.304C239.386 27.572 239.188 26.744 239.188 25.82C239.188 24.896 239.386 24.074 239.782 23.354C240.178 22.622 240.73 22.052 241.438 21.644C242.158 21.224 242.968 21.014 243.868 21.014C244.768 21.014 245.572 21.224 246.28 21.644C247 22.052 247.564 22.622 247.972 23.354C248.38 24.074 248.584 24.896 248.584 25.82C248.584 26.744 248.38 27.572 247.972 28.304C247.564 29.036 247 29.612 246.28 30.032C245.572 30.44 244.768 30.644 243.868 30.644ZM243.868 28.934C244.408 28.934 244.876 28.802 245.272 28.538C245.68 28.274 245.998 27.908 246.226 27.44C246.454 26.96 246.568 26.42 246.568 25.82C246.568 25.22 246.454 24.686 246.226 24.218C245.998 23.75 245.674 23.384 245.254 23.12C244.846 22.856 244.384 22.724 243.868 22.724C243.352 22.724 242.884 22.856 242.464 23.12C242.056 23.384 241.738 23.756 241.51 24.236C241.294 24.704 241.186 25.232 241.186 25.82C241.186 26.432 241.294 26.972 241.51 27.44C241.738 27.908 242.056 28.274 242.464 28.538C242.872 28.802 243.34 28.934 243.868 28.934ZM253.67 21.158H255.668L258.044 28.25L260.438 21.158H262.4L258.998 30.5H257.09L253.67 21.158ZM264.129 21.158H266.091V30.5H264.129V21.158ZM264.129 28.844H266.091V30.5H264.129V28.844ZM264.129 21.158H265.443V22.814H264.129V21.158ZM264.021 17.468H266.217V19.682H264.021V17.468ZM272.095 30.644C271.327 30.644 270.643 30.506 270.043 30.23C269.455 29.942 268.987 29.546 268.639 29.042C268.303 28.538 268.123 27.968 268.099 27.332H270.025C270.049 27.764 270.253 28.142 270.637 28.466C271.033 28.79 271.519 28.952 272.095 28.952C272.611 28.952 273.025 28.844 273.337 28.628C273.661 28.412 273.823 28.142 273.823 27.818C273.823 27.518 273.721 27.284 273.517 27.116C273.325 26.936 273.043 26.804 272.671 26.72L271.123 26.36C270.331 26.18 269.695 25.886 269.215 25.478C268.747 25.058 268.513 24.446 268.513 23.642C268.513 23.15 268.651 22.706 268.927 22.31C269.215 21.914 269.617 21.602 270.133 21.374C270.649 21.134 271.243 21.014 271.915 21.014C272.575 21.014 273.169 21.134 273.697 21.374C274.237 21.602 274.675 21.938 275.011 22.382C275.359 22.814 275.569 23.324 275.641 23.912H273.715C273.667 23.516 273.469 23.204 273.121 22.976C272.785 22.736 272.383 22.616 271.915 22.616C271.483 22.616 271.135 22.712 270.871 22.904C270.607 23.084 270.475 23.33 270.475 23.642C270.475 23.882 270.571 24.092 270.763 24.272C270.955 24.44 271.225 24.56 271.573 24.632L273.121 24.974C273.985 25.166 274.651 25.466 275.119 25.874C275.587 26.27 275.821 26.9 275.821 27.764C275.821 28.304 275.665 28.796 275.353 29.24C275.041 29.672 274.603 30.014 274.039 30.266C273.475 30.518 272.827 30.644 272.095 30.644ZM286.287 30.5H284.325V28.916C283.989 29.456 283.551 29.882 283.011 30.194C282.483 30.494 281.889 30.644 281.229 30.644C280.569 30.644 279.987 30.506 279.483 30.23C278.979 29.954 278.583 29.564 278.295 29.06C278.007 28.556 277.863 27.974 277.863 27.314V21.158H279.825V26.882C279.825 27.482 279.999 27.968 280.347 28.34C280.695 28.7 281.163 28.88 281.751 28.88C282.279 28.88 282.735 28.736 283.119 28.448C283.503 28.16 283.797 27.746 284.001 27.206C284.217 26.666 284.325 26.018 284.325 25.262V21.158H286.287V30.5ZM291.652 30.644C291.028 30.644 290.47 30.53 289.978 30.302C289.498 30.074 289.12 29.756 288.844 29.348C288.568 28.94 288.43 28.478 288.43 27.962C288.43 27.158 288.706 26.51 289.258 26.018C289.81 25.526 290.602 25.208 291.634 25.064L293.632 24.812C293.896 24.764 294.094 24.68 294.226 24.56C294.37 24.428 294.442 24.248 294.442 24.02C294.442 23.612 294.262 23.27 293.902 22.994C293.554 22.718 293.08 22.58 292.48 22.58C291.904 22.58 291.43 22.724 291.058 23.012C290.686 23.3 290.476 23.696 290.428 24.2H288.502C288.574 23.552 288.778 22.988 289.114 22.508C289.462 22.028 289.924 21.662 290.5 21.41C291.076 21.146 291.736 21.014 292.48 21.014C293.272 21.014 293.962 21.158 294.55 21.446C295.15 21.722 295.606 22.124 295.918 22.652C296.242 23.168 296.404 23.774 296.404 24.47V28.178C296.404 28.442 296.458 28.634 296.566 28.754C296.674 28.862 296.83 28.916 297.034 28.916C297.118 28.916 297.214 28.904 297.322 28.88V30.5C296.986 30.572 296.68 30.608 296.404 30.608C295.912 30.608 295.51 30.488 295.198 30.248C294.886 29.996 294.712 29.624 294.676 29.132C294.448 29.6 294.064 29.972 293.524 30.248C292.984 30.512 292.36 30.644 291.652 30.644ZM291.958 29.114C292.75 29.114 293.368 28.868 293.812 28.376C294.268 27.872 294.496 27.212 294.496 26.396V26.054L291.958 26.468C291.442 26.54 291.052 26.696 290.788 26.936C290.524 27.176 290.392 27.494 290.392 27.89C290.392 28.25 290.536 28.544 290.824 28.772C291.112 29 291.49 29.114 291.958 29.114ZM299.16 17.378H301.122V30.5H299.16V17.378ZM299.16 28.844H301.122V30.5H299.16V28.844ZM299.16 17.378H300.474V19.034H299.16V17.378ZM303.796 21.158H305.758V30.5H303.796V21.158ZM303.796 28.844H305.758V30.5H303.796V28.844ZM303.796 21.158H305.11V22.814H303.796V21.158ZM303.688 17.468H305.884V19.682H303.688V17.468ZM307.712 29.006L313.112 22.814H308.018V21.158H315.56V22.652L310.214 28.844H315.632V30.5H307.712V29.006ZM318.884 25.784C318.884 26.78 319.13 27.56 319.622 28.124C320.114 28.688 320.78 28.97 321.62 28.97C322.208 28.97 322.706 28.838 323.114 28.574C323.534 28.31 323.798 27.944 323.906 27.476H325.832C325.724 28.136 325.472 28.706 325.076 29.186C324.692 29.666 324.194 30.032 323.582 30.284C322.982 30.524 322.31 30.644 321.566 30.644C320.618 30.644 319.796 30.422 319.1 29.978C318.404 29.534 317.87 28.946 317.498 28.214C317.138 27.482 316.958 26.684 316.958 25.82C316.958 24.956 317.132 24.158 317.48 23.426C317.828 22.694 318.344 22.112 319.028 21.68C319.712 21.236 320.528 21.014 321.476 21.014C322.4 21.014 323.198 21.224 323.87 21.644C324.542 22.052 325.046 22.598 325.382 23.282C325.73 23.966 325.898 24.704 325.886 25.496C325.886 25.724 325.874 25.988 325.85 26.288H318.092V24.74H323.78C323.744 24.32 323.63 23.948 323.438 23.624C323.258 23.288 323 23.03 322.664 22.85C322.328 22.658 321.932 22.562 321.476 22.562C320.936 22.562 320.468 22.694 320.072 22.958C319.688 23.21 319.394 23.582 319.19 24.074C318.986 24.554 318.884 25.124 318.884 25.784ZM335.84 30.644C334.88 30.644 334.124 30.392 333.572 29.888C333.02 29.384 332.744 28.646 332.744 27.674V22.814H331.088V21.158H332.744V18.368H334.706V21.158H336.974V22.814H334.706V27.512C334.706 27.968 334.826 28.322 335.066 28.574C335.306 28.814 335.63 28.934 336.038 28.934C336.206 28.934 336.368 28.922 336.524 28.898C336.692 28.862 336.842 28.826 336.974 28.79V30.5C336.626 30.596 336.248 30.644 335.84 30.644ZM338.963 17.378H340.925V22.742C341.261 22.202 341.693 21.782 342.221 21.482C342.761 21.17 343.361 21.014 344.021 21.014C344.681 21.014 345.263 21.152 345.767 21.428C346.283 21.704 346.679 22.094 346.955 22.598C347.243 23.102 347.387 23.684 347.387 24.344V30.5H345.443V24.776C345.443 24.188 345.263 23.708 344.903 23.336C344.555 22.964 344.087 22.778 343.499 22.778C342.971 22.778 342.515 22.922 342.131 23.21C341.747 23.498 341.447 23.918 341.231 24.47C341.027 25.01 340.925 25.652 340.925 26.396V30.5H338.963V17.378ZM351.383 25.784C351.383 26.78 351.629 27.56 352.121 28.124C352.613 28.688 353.279 28.97 354.119 28.97C354.707 28.97 355.205 28.838 355.613 28.574C356.033 28.31 356.297 27.944 356.405 27.476H358.331C358.223 28.136 357.971 28.706 357.575 29.186C357.191 29.666 356.693 30.032 356.081 30.284C355.481 30.524 354.809 30.644 354.065 30.644C353.117 30.644 352.295 30.422 351.599 29.978C350.903 29.534 350.369 28.946 349.997 28.214C349.637 27.482 349.457 26.684 349.457 25.82C349.457 24.956 349.631 24.158 349.979 23.426C350.327 22.694 350.843 22.112 351.527 21.68C352.211 21.236 353.027 21.014 353.975 21.014C354.899 21.014 355.697 21.224 356.369 21.644C357.041 22.052 357.545 22.598 357.881 23.282C358.229 23.966 358.397 24.704 358.385 25.496C358.385 25.724 358.373 25.988 358.349 26.288H350.591V24.74H356.279C356.243 24.32 356.129 23.948 355.937 23.624C355.757 23.288 355.499 23.03 355.163 22.85C354.827 22.658 354.431 22.562 353.975 22.562C353.435 22.562 352.967 22.694 352.571 22.958C352.187 23.21 351.893 23.582 351.689 24.074C351.485 24.554 351.383 25.124 351.383 25.784ZM368.801 30.644C367.877 30.644 367.079 30.44 366.407 30.032C365.735 29.624 365.219 29.054 364.859 28.322C364.511 27.59 364.337 26.756 364.337 25.82C364.337 24.884 364.517 24.056 364.877 23.336C365.237 22.604 365.747 22.034 366.407 21.626C367.079 21.218 367.865 21.014 368.765 21.014C369.353 21.014 369.899 21.14 370.403 21.392C370.919 21.632 371.321 21.95 371.609 22.346V17.378H373.571V30.5H371.609V29.294C371.393 29.678 371.027 30.002 370.511 30.266C369.995 30.518 369.425 30.644 368.801 30.644ZM369.053 28.934C369.581 28.934 370.049 28.808 370.457 28.556C370.865 28.292 371.183 27.926 371.411 27.458C371.639 26.99 371.753 26.444 371.753 25.82C371.753 25.208 371.639 24.668 371.411 24.2C371.183 23.732 370.865 23.372 370.457 23.12C370.049 22.856 369.581 22.724 369.053 22.724C368.513 22.724 368.039 22.856 367.631 23.12C367.223 23.372 366.905 23.732 366.677 24.2C366.461 24.668 366.353 25.208 366.353 25.82C366.353 26.432 366.461 26.978 366.677 27.458C366.905 27.926 367.223 28.292 367.631 28.556C368.039 28.808 368.513 28.934 369.053 28.934ZM378.944 30.644C378.32 30.644 377.762 30.53 377.27 30.302C376.79 30.074 376.412 29.756 376.136 29.348C375.86 28.94 375.722 28.478 375.722 27.962C375.722 27.158 375.998 26.51 376.55 26.018C377.102 25.526 377.894 25.208 378.926 25.064L380.924 24.812C381.188 24.764 381.386 24.68 381.518 24.56C381.662 24.428 381.734 24.248 381.734 24.02C381.734 23.612 381.554 23.27 381.194 22.994C380.846 22.718 380.372 22.58 379.772 22.58C379.196 22.58 378.722 22.724 378.35 23.012C377.978 23.3 377.768 23.696 377.72 24.2H375.794C375.866 23.552 376.07 22.988 376.406 22.508C376.754 22.028 377.216 21.662 377.792 21.41C378.368 21.146 379.028 21.014 379.772 21.014C380.564 21.014 381.254 21.158 381.842 21.446C382.442 21.722 382.898 22.124 383.21 22.652C383.534 23.168 383.696 23.774 383.696 24.47V28.178C383.696 28.442 383.75 28.634 383.858 28.754C383.966 28.862 384.122 28.916 384.326 28.916C384.41 28.916 384.506 28.904 384.614 28.88V30.5C384.278 30.572 383.972 30.608 383.696 30.608C383.204 30.608 382.802 30.488 382.49 30.248C382.178 29.996 382.004 29.624 381.968 29.132C381.74 29.6 381.356 29.972 380.816 30.248C380.276 30.512 379.652 30.644 378.944 30.644ZM379.25 29.114C380.042 29.114 380.66 28.868 381.104 28.376C381.56 27.872 381.788 27.212 381.788 26.396V26.054L379.25 26.468C378.734 26.54 378.344 26.696 378.08 26.936C377.816 27.176 377.684 27.494 377.684 27.89C377.684 28.25 377.828 28.544 378.116 28.772C378.404 29 378.782 29.114 379.25 29.114ZM390.092 30.644C389.132 30.644 388.376 30.392 387.824 29.888C387.272 29.384 386.996 28.646 386.996 27.674V22.814H385.34V21.158H386.996V18.368H388.958V21.158H391.226V22.814H388.958V27.512C388.958 27.968 389.078 28.322 389.318 28.574C389.558 28.814 389.882 28.934 390.29 28.934C390.458 28.934 390.62 28.922 390.776 28.898C390.944 28.862 391.094 28.826 391.226 28.79V30.5C390.878 30.596 390.5 30.644 390.092 30.644ZM395.915 30.644C395.291 30.644 394.733 30.53 394.241 30.302C393.761 30.074 393.383 29.756 393.107 29.348C392.831 28.94 392.693 28.478 392.693 27.962C392.693 27.158 392.969 26.51 393.521 26.018C394.073 25.526 394.865 25.208 395.897 25.064L397.895 24.812C398.159 24.764 398.357 24.68 398.489 24.56C398.633 24.428 398.705 24.248 398.705 24.02C398.705 23.612 398.525 23.27 398.165 22.994C397.817 22.718 397.343 22.58 396.743 22.58C396.167 22.58 395.693 22.724 395.321 23.012C394.949 23.3 394.739 23.696 394.691 24.2H392.765C392.837 23.552 393.041 22.988 393.377 22.508C393.725 22.028 394.187 21.662 394.763 21.41C395.339 21.146 395.999 21.014 396.743 21.014C397.535 21.014 398.225 21.158 398.813 21.446C399.413 21.722 399.869 22.124 400.181 22.652C400.505 23.168 400.667 23.774 400.667 24.47V28.178C400.667 28.442 400.721 28.634 400.829 28.754C400.937 28.862 401.093 28.916 401.297 28.916C401.381 28.916 401.477 28.904 401.585 28.88V30.5C401.249 30.572 400.943 30.608 400.667 30.608C400.175 30.608 399.773 30.488 399.461 30.248C399.149 29.996 398.975 29.624 398.939 29.132C398.711 29.6 398.327 29.972 397.787 30.248C397.247 30.512 396.623 30.644 395.915 30.644ZM396.221 29.114C397.013 29.114 397.631 28.868 398.075 28.376C398.531 27.872 398.759 27.212 398.759 26.396V26.054L396.221 26.468C395.705 26.54 395.315 26.696 395.051 26.936C394.787 27.176 394.655 27.494 394.655 27.89C394.655 28.25 394.799 28.544 395.087 28.772C395.375 29 395.753 29.114 396.221 29.114ZM405.169 26.684C405.109 26.132 405.145 25.664 405.277 25.28C405.421 24.896 405.613 24.578 405.853 24.326C406.093 24.074 406.405 23.792 406.789 23.48C407.125 23.204 407.389 22.964 407.581 22.76C407.785 22.556 407.947 22.316 408.067 22.04C408.199 21.752 408.265 21.428 408.265 21.068C408.265 20.492 408.061 20.024 407.653 19.664C407.257 19.292 406.747 19.106 406.123 19.106C405.403 19.106 404.833 19.334 404.413 19.79C404.005 20.246 403.825 20.864 403.873 21.644H401.893C401.881 20.768 402.049 20.012 402.397 19.376C402.745 18.728 403.243 18.236 403.891 17.9C404.539 17.552 405.283 17.378 406.123 17.378C406.951 17.378 407.683 17.534 408.319 17.846C408.955 18.146 409.447 18.572 409.795 19.124C410.155 19.676 410.335 20.312 410.335 21.032C410.335 21.644 410.239 22.16 410.047 22.58C409.867 23 409.645 23.342 409.381 23.606C409.117 23.87 408.781 24.152 408.373 24.452C408.037 24.716 407.773 24.938 407.581 25.118C407.389 25.298 407.233 25.52 407.113 25.784C407.005 26.036 406.963 26.336 406.987 26.684H405.169ZM407.221 28.304V30.5H404.953V28.304H407.221Z" fill="#0E0E11"/>
<path d="M578 29L583 24L588 29M588 19L582.999 24L578 19" stroke="#0E0E11" stroke-linecap="round" stroke-linejoin="round"/>
<mask id="path-4-inside-1_181_477" fill="white">
<path d="M8 48H599V90H8V48Z"/>
</mask>
<path d="M599 90V89H8V90V91H599V90Z" fill="#CCCCCF" mask="url(#path-4-inside-1_181_477)"/>
<path d="M24.0002 73.5835C19.8122 73.5835 16.4164 70.1885 16.4163 66.0005C16.4163 61.8123 19.8121 58.4165 24.0002 58.4165C28.1883 58.4167 31.5833 61.8124 31.5833 66.0005C31.5831 70.1884 28.1881 73.5833 24.0002 73.5835Z" stroke="#000975" stroke-width="1.5"/>
<path d="M43.232 59.464H44.544V69.8H50.352V71H43.232V59.464ZM54.2455 71.128C53.7015 71.128 53.2162 71.032 52.7895 70.84C52.3628 70.6373 52.0322 70.36 51.7975 70.008C51.5628 69.656 51.4455 69.2453 51.4455 68.776C51.4455 68.0827 51.6855 67.5173 52.1655 67.08C52.6455 66.6427 53.3335 66.3653 54.2295 66.248L56.2135 65.992C56.4908 65.9493 56.6935 65.8693 56.8215 65.752C56.9602 65.624 57.0295 65.448 57.0295 65.224C57.0295 64.7547 56.8428 64.376 56.4695 64.088C56.0962 63.7893 55.5895 63.64 54.9495 63.64C54.3308 63.64 53.8295 63.784 53.4455 64.072C53.0722 64.36 52.8642 64.7707 52.8215 65.304H51.5575C51.6215 64.7493 51.7975 64.2693 52.0855 63.864C52.3842 63.448 52.7788 63.128 53.2695 62.904C53.7602 62.68 54.3202 62.568 54.9495 62.568C55.6002 62.568 56.1762 62.6853 56.6775 62.92C57.1788 63.1547 57.5682 63.4853 57.8455 63.912C58.1228 64.328 58.2615 64.8027 58.2615 65.336V69.352C58.2615 69.608 58.3095 69.7787 58.4055 69.864C58.5122 69.9493 58.6615 69.992 58.8535 69.992C58.9388 69.992 59.0242 69.9813 59.1095 69.96V71C58.8962 71.0533 58.7148 71.08 58.5655 71.08C58.1175 71.08 57.7602 70.9573 57.4935 70.712C57.2375 70.4667 57.1042 70.088 57.0935 69.576C56.8695 70.0453 56.4962 70.424 55.9735 70.712C55.4615 70.9893 54.8855 71.128 54.2455 71.128ZM54.3895 70.072C55.2215 70.072 55.8722 69.8213 56.3415 69.32C56.8108 68.8187 57.0455 68.1253 57.0455 67.24V66.824L54.3895 67.24C53.8348 67.3253 53.4135 67.496 53.1255 67.752C52.8482 67.9973 52.7095 68.3333 52.7095 68.76C52.7095 69.1653 52.8642 69.4853 53.1735 69.72C53.4828 69.9547 53.8882 70.072 54.3895 70.072ZM64.9066 71.128C64.288 71.128 63.7226 70.9947 63.2106 70.728C62.6986 70.4507 62.352 70.12 62.1706 69.736V71H60.9386V59.336H62.1706V63.96C62.4266 63.5547 62.8106 63.224 63.3226 62.968C63.8346 62.7013 64.3626 62.568 64.9066 62.568C65.728 62.568 66.432 62.7547 67.0186 63.128C67.616 63.5013 68.0693 64.0133 68.3786 64.664C68.6986 65.304 68.8586 66.0293 68.8586 66.84C68.8586 67.6507 68.704 68.3813 68.3946 69.032C68.0853 69.6827 67.632 70.1947 67.0346 70.568C66.4373 70.9413 65.728 71.128 64.9066 71.128ZM64.8106 70.024C65.3546 70.024 65.8346 69.896 66.2506 69.64C66.6773 69.3733 67.0026 69 67.2266 68.52C67.4613 68.0293 67.5786 67.4693 67.5786 66.84C67.5786 66.2107 67.4613 65.656 67.2266 65.176C67.0026 64.696 66.6773 64.328 66.2506 64.072C65.8346 63.8053 65.3546 63.672 64.8106 63.672C64.2666 63.672 63.7813 63.8053 63.3546 64.072C62.9386 64.328 62.6186 64.696 62.3946 65.176C62.1706 65.656 62.0586 66.2107 62.0586 66.84C62.0586 67.48 62.1706 68.04 62.3946 68.52C62.6186 69 62.9386 69.3733 63.3546 69.64C63.7813 69.896 64.2666 70.024 64.8106 70.024ZM71.7011 66.824C71.7011 67.816 71.9518 68.6 72.4531 69.176C72.9545 69.752 73.6211 70.04 74.4531 70.04C75.0825 70.04 75.6211 69.8907 76.0691 69.592C76.5171 69.2933 76.7891 68.888 76.8851 68.376H78.0691C77.9625 68.9627 77.7385 69.464 77.3971 69.88C77.0665 70.2853 76.6451 70.5947 76.1331 70.808C75.6211 71.0213 75.0611 71.128 74.4531 71.128C73.6531 71.128 72.9491 70.9413 72.3411 70.568C71.7438 70.1947 71.2798 69.6827 70.9491 69.032C70.6185 68.3813 70.4531 67.6507 70.4531 66.84C70.4531 66.0293 70.6131 65.304 70.9331 64.664C71.2638 64.0133 71.7278 63.5013 72.3251 63.128C72.9225 62.7547 73.6211 62.568 74.4211 62.568C75.1678 62.568 75.8238 62.7387 76.3891 63.08C76.9545 63.4107 77.3865 63.8747 77.6851 64.472C77.9945 65.0587 78.1438 65.7147 78.1331 66.44C78.1331 66.632 78.1225 66.8187 78.1011 67H71.1571V65.96H76.8211C76.7891 65.512 76.6718 65.112 76.4691 64.76C76.2771 64.408 76.0051 64.1307 75.6531 63.928C75.3011 63.7253 74.8905 63.624 74.4211 63.624C73.8558 63.624 73.3705 63.7573 72.9651 64.024C72.5598 64.2907 72.2451 64.664 72.0211 65.144C71.8078 65.624 71.7011 66.184 71.7011 66.824ZM80.258 59.336H81.49V71H80.258V59.336ZM80.258 69.928H81.49V71H80.258V69.928ZM80.258 59.336H81.074V60.408H80.258V59.336Z" fill="#0E0E11"/>
<mask id="path-8-inside-2_181_477" fill="white">
<path d="M8 98H599V140H8V98Z"/>
</mask>
<path d="M599 140V139H8V140V141H599V140Z" fill="#CCCCCF" mask="url(#path-8-inside-2_181_477)"/>
<path d="M24.0002 123.583C19.8122 123.583 16.4164 120.188 16.4163 116C16.4163 111.812 19.8121 108.417 24.0002 108.417C28.1883 108.417 31.5833 111.812 31.5833 116C31.5831 120.188 28.1881 123.583 24.0002 123.583Z" stroke="#000975" stroke-width="1.5"/>
<path d="M43.232 109.464H44.544V119.8H50.352V121H43.232V109.464ZM54.2455 121.128C53.7015 121.128 53.2162 121.032 52.7895 120.84C52.3628 120.637 52.0322 120.36 51.7975 120.008C51.5628 119.656 51.4455 119.245 51.4455 118.776C51.4455 118.083 51.6855 117.517 52.1655 117.08C52.6455 116.643 53.3335 116.365 54.2295 116.248L56.2135 115.992C56.4908 115.949 56.6935 115.869 56.8215 115.752C56.9602 115.624 57.0295 115.448 57.0295 115.224C57.0295 114.755 56.8428 114.376 56.4695 114.088C56.0962 113.789 55.5895 113.64 54.9495 113.64C54.3308 113.64 53.8295 113.784 53.4455 114.072C53.0722 114.36 52.8642 114.771 52.8215 115.304H51.5575C51.6215 114.749 51.7975 114.269 52.0855 113.864C52.3842 113.448 52.7788 113.128 53.2695 112.904C53.7602 112.68 54.3202 112.568 54.9495 112.568C55.6002 112.568 56.1762 112.685 56.6775 112.92C57.1788 113.155 57.5682 113.485 57.8455 113.912C58.1228 114.328 58.2615 114.803 58.2615 115.336V119.352C58.2615 119.608 58.3095 119.779 58.4055 119.864C58.5122 119.949 58.6615 119.992 58.8535 119.992C58.9388 119.992 59.0242 119.981 59.1095 119.96V121C58.8962 121.053 58.7148 121.08 58.5655 121.08C58.1175 121.08 57.7602 120.957 57.4935 120.712C57.2375 120.467 57.1042 120.088 57.0935 119.576C56.8695 120.045 56.4962 120.424 55.9735 120.712C55.4615 120.989 54.8855 121.128 54.2455 121.128ZM54.3895 120.072C55.2215 120.072 55.8722 119.821 56.3415 119.32C56.8108 118.819 57.0455 118.125 57.0455 117.24V116.824L54.3895 117.24C53.8348 117.325 53.4135 117.496 53.1255 117.752C52.8482 117.997 52.7095 118.333 52.7095 118.76C52.7095 119.165 52.8642 119.485 53.1735 119.72C53.4828 119.955 53.8882 120.072 54.3895 120.072ZM64.9066 121.128C64.288 121.128 63.7226 120.995 63.2106 120.728C62.6986 120.451 62.352 120.12 62.1706 119.736V121H60.9386V109.336H62.1706V113.96C62.4266 113.555 62.8106 113.224 63.3226 112.968C63.8346 112.701 64.3626 112.568 64.9066 112.568C65.728 112.568 66.432 112.755 67.0186 113.128C67.616 113.501 68.0693 114.013 68.3786 114.664C68.6986 115.304 68.8586 116.029 68.8586 116.84C68.8586 117.651 68.704 118.381 68.3946 119.032C68.0853 119.683 67.632 120.195 67.0346 120.568C66.4373 120.941 65.728 121.128 64.9066 121.128ZM64.8106 120.024C65.3546 120.024 65.8346 119.896 66.2506 119.64C66.6773 119.373 67.0026 119 67.2266 118.52C67.4613 118.029 67.5786 117.469 67.5786 116.84C67.5786 116.211 67.4613 115.656 67.2266 115.176C67.0026 114.696 66.6773 114.328 66.2506 114.072C65.8346 113.805 65.3546 113.672 64.8106 113.672C64.2666 113.672 63.7813 113.805 63.3546 114.072C62.9386 114.328 62.6186 114.696 62.3946 115.176C62.1706 115.656 62.0586 116.211 62.0586 116.84C62.0586 117.48 62.1706 118.04 62.3946 118.52C62.6186 119 62.9386 119.373 63.3546 119.64C63.7813 119.896 64.2666 120.024 64.8106 120.024ZM71.7011 116.824C71.7011 117.816 71.9518 118.6 72.4531 119.176C72.9545 119.752 73.6211 120.04 74.4531 120.04C75.0825 120.04 75.6211 119.891 76.0691 119.592C76.5171 119.293 76.7891 118.888 76.8851 118.376H78.0691C77.9625 118.963 77.7385 119.464 77.3971 119.88C77.0665 120.285 76.6451 120.595 76.1331 120.808C75.6211 121.021 75.0611 121.128 74.4531 121.128C73.6531 121.128 72.9491 120.941 72.3411 120.568C71.7438 120.195 71.2798 119.683 70.9491 119.032C70.6185 118.381 70.4531 117.651 70.4531 116.84C70.4531 116.029 70.6131 115.304 70.9331 114.664C71.2638 114.013 71.7278 113.501 72.3251 113.128C72.9225 112.755 73.6211 112.568 74.4211 112.568C75.1678 112.568 75.8238 112.739 76.3891 113.08C76.9545 113.411 77.3865 113.875 77.6851 114.472C77.9945 115.059 78.1438 115.715 78.1331 116.44C78.1331 116.632 78.1225 116.819 78.1011 117H71.1571V115.96H76.8211C76.7891 115.512 76.6718 115.112 76.4691 114.76C76.2771 114.408 76.0051 114.131 75.6531 113.928C75.3011 113.725 74.8905 113.624 74.4211 113.624C73.8558 113.624 73.3705 113.757 72.9651 114.024C72.5598 114.291 72.2451 114.664 72.0211 115.144C71.8078 115.624 71.7011 116.184 71.7011 116.824ZM80.258 109.336H81.49V121H80.258V109.336ZM80.258 119.928H81.49V121H80.258V119.928ZM80.258 109.336H81.074V110.408H80.258V109.336Z" fill="#0E0E11"/>
<mask id="path-12-inside-3_181_477" fill="white">
<path d="M8 148H599V190H8V148Z"/>
</mask>
<path d="M599 190V189H8V190V191H599V190Z" fill="#CCCCCF" mask="url(#path-12-inside-3_181_477)"/>
<path d="M24.0002 173.583C19.8122 173.583 16.4164 170.188 16.4163 166C16.4163 161.812 19.8121 158.417 24.0002 158.417C28.1883 158.417 31.5833 161.812 31.5833 166C31.5831 170.188 28.1881 173.583 24.0002 173.583Z" stroke="#000975" stroke-width="1.5"/>
<path d="M43.232 159.464H44.544V169.8H50.352V171H43.232V159.464ZM54.2455 171.128C53.7015 171.128 53.2162 171.032 52.7895 170.84C52.3628 170.637 52.0322 170.36 51.7975 170.008C51.5628 169.656 51.4455 169.245 51.4455 168.776C51.4455 168.083 51.6855 167.517 52.1655 167.08C52.6455 166.643 53.3335 166.365 54.2295 166.248L56.2135 165.992C56.4908 165.949 56.6935 165.869 56.8215 165.752C56.9602 165.624 57.0295 165.448 57.0295 165.224C57.0295 164.755 56.8428 164.376 56.4695 164.088C56.0962 163.789 55.5895 163.64 54.9495 163.64C54.3308 163.64 53.8295 163.784 53.4455 164.072C53.0722 164.36 52.8642 164.771 52.8215 165.304H51.5575C51.6215 164.749 51.7975 164.269 52.0855 163.864C52.3842 163.448 52.7788 163.128 53.2695 162.904C53.7602 162.68 54.3202 162.568 54.9495 162.568C55.6002 162.568 56.1762 162.685 56.6775 162.92C57.1788 163.155 57.5682 163.485 57.8455 163.912C58.1228 164.328 58.2615 164.803 58.2615 165.336V169.352C58.2615 169.608 58.3095 169.779 58.4055 169.864C58.5122 169.949 58.6615 169.992 58.8535 169.992C58.9388 169.992 59.0242 169.981 59.1095 169.96V171C58.8962 171.053 58.7148 171.08 58.5655 171.08C58.1175 171.08 57.7602 170.957 57.4935 170.712C57.2375 170.467 57.1042 170.088 57.0935 169.576C56.8695 170.045 56.4962 170.424 55.9735 170.712C55.4615 170.989 54.8855 171.128 54.2455 171.128ZM54.3895 170.072C55.2215 170.072 55.8722 169.821 56.3415 169.32C56.8108 168.819 57.0455 168.125 57.0455 167.24V166.824L54.3895 167.24C53.8348 167.325 53.4135 167.496 53.1255 167.752C52.8482 167.997 52.7095 168.333 52.7095 168.76C52.7095 169.165 52.8642 169.485 53.1735 169.72C53.4828 169.955 53.8882 170.072 54.3895 170.072ZM64.9066 171.128C64.288 171.128 63.7226 170.995 63.2106 170.728C62.6986 170.451 62.352 170.12 62.1706 169.736V171H60.9386V159.336H62.1706V163.96C62.4266 163.555 62.8106 163.224 63.3226 162.968C63.8346 162.701 64.3626 162.568 64.9066 162.568C65.728 162.568 66.432 162.755 67.0186 163.128C67.616 163.501 68.0693 164.013 68.3786 164.664C68.6986 165.304 68.8586 166.029 68.8586 166.84C68.8586 167.651 68.704 168.381 68.3946 169.032C68.0853 169.683 67.632 170.195 67.0346 170.568C66.4373 170.941 65.728 171.128 64.9066 171.128ZM64.8106 170.024C65.3546 170.024 65.8346 169.896 66.2506 169.64C66.6773 169.373 67.0026 169 67.2266 168.52C67.4613 168.029 67.5786 167.469 67.5786 166.84C67.5786 166.211 67.4613 165.656 67.2266 165.176C67.0026 164.696 66.6773 164.328 66.2506 164.072C65.8346 163.805 65.3546 163.672 64.8106 163.672C64.2666 163.672 63.7813 163.805 63.3546 164.072C62.9386 164.328 62.6186 164.696 62.3946 165.176C62.1706 165.656 62.0586 166.211 62.0586 166.84C62.0586 167.48 62.1706 168.04 62.3946 168.52C62.6186 169 62.9386 169.373 63.3546 169.64C63.7813 169.896 64.2666 170.024 64.8106 170.024ZM71.7011 166.824C71.7011 167.816 71.9518 168.6 72.4531 169.176C72.9545 169.752 73.6211 170.04 74.4531 170.04C75.0825 170.04 75.6211 169.891 76.0691 169.592C76.5171 169.293 76.7891 168.888 76.8851 168.376H78.0691C77.9625 168.963 77.7385 169.464 77.3971 169.88C77.0665 170.285 76.6451 170.595 76.1331 170.808C75.6211 171.021 75.0611 171.128 74.4531 171.128C73.6531 171.128 72.9491 170.941 72.3411 170.568C71.7438 170.195 71.2798 169.683 70.9491 169.032C70.6185 168.381 70.4531 167.651 70.4531 166.84C70.4531 166.029 70.6131 165.304 70.9331 164.664C71.2638 164.013 71.7278 163.501 72.3251 163.128C72.9225 162.755 73.6211 162.568 74.4211 162.568C75.1678 162.568 75.8238 162.739 76.3891 163.08C76.9545 163.411 77.3865 163.875 77.6851 164.472C77.9945 165.059 78.1438 165.715 78.1331 166.44C78.1331 166.632 78.1225 166.819 78.1011 167H71.1571V165.96H76.8211C76.7891 165.512 76.6718 165.112 76.4691 164.76C76.2771 164.408 76.0051 164.131 75.6531 163.928C75.3011 163.725 74.8905 163.624 74.4211 163.624C73.8558 163.624 73.3705 163.757 72.9651 164.024C72.5598 164.291 72.2451 164.664 72.0211 165.144C71.8078 165.624 71.7011 166.184 71.7011 166.824ZM80.258 159.336H81.49V171H80.258V159.336ZM80.258 169.928H81.49V171H80.258V169.928ZM80.258 159.336H81.074V160.408H80.258V159.336Z" fill="#0E0E11"/>
<path d="M24.0002 223.583C19.8122 223.583 16.4164 220.188 16.4163 216C16.4163 211.812 19.8121 208.417 24.0002 208.417C28.1883 208.417 31.5833 211.812 31.5833 216C31.5831 220.188 28.1881 223.583 24.0002 223.583Z" stroke="#000975" stroke-width="1.5"/>
<path d="M43.232 209.464H44.544V219.8H50.352V221H43.232V209.464ZM54.2455 221.128C53.7015 221.128 53.2162 221.032 52.7895 220.84C52.3628 220.637 52.0322 220.36 51.7975 220.008C51.5628 219.656 51.4455 219.245 51.4455 218.776C51.4455 218.083 51.6855 217.517 52.1655 217.08C52.6455 216.643 53.3335 216.365 54.2295 216.248L56.2135 215.992C56.4908 215.949 56.6935 215.869 56.8215 215.752C56.9602 215.624 57.0295 215.448 57.0295 215.224C57.0295 214.755 56.8428 214.376 56.4695 214.088C56.0962 213.789 55.5895 213.64 54.9495 213.64C54.3308 213.64 53.8295 213.784 53.4455 214.072C53.0722 214.36 52.8642 214.771 52.8215 215.304H51.5575C51.6215 214.749 51.7975 214.269 52.0855 213.864C52.3842 213.448 52.7788 213.128 53.2695 212.904C53.7602 212.68 54.3202 212.568 54.9495 212.568C55.6002 212.568 56.1762 212.685 56.6775 212.92C57.1788 213.155 57.5682 213.485 57.8455 213.912C58.1228 214.328 58.2615 214.803 58.2615 215.336V219.352C58.2615 219.608 58.3095 219.779 58.4055 219.864C58.5122 219.949 58.6615 219.992 58.8535 219.992C58.9388 219.992 59.0242 219.981 59.1095 219.96V221C58.8962 221.053 58.7148 221.08 58.5655 221.08C58.1175 221.08 57.7602 220.957 57.4935 220.712C57.2375 220.467 57.1042 220.088 57.0935 219.576C56.8695 220.045 56.4962 220.424 55.9735 220.712C55.4615 220.989 54.8855 221.128 54.2455 221.128ZM54.3895 220.072C55.2215 220.072 55.8722 219.821 56.3415 219.32C56.8108 218.819 57.0455 218.125 57.0455 217.24V216.824L54.3895 217.24C53.8348 217.325 53.4135 217.496 53.1255 217.752C52.8482 217.997 52.7095 218.333 52.7095 218.76C52.7095 219.165 52.8642 219.485 53.1735 219.72C53.4828 219.955 53.8882 220.072 54.3895 220.072ZM64.9066 221.128C64.288 221.128 63.7226 220.995 63.2106 220.728C62.6986 220.451 62.352 220.12 62.1706 219.736V221H60.9386V209.336H62.1706V213.96C62.4266 213.555 62.8106 213.224 63.3226 212.968C63.8346 212.701 64.3626 212.568 64.9066 212.568C65.728 212.568 66.432 212.755 67.0186 213.128C67.616 213.501 68.0693 214.013 68.3786 214.664C68.6986 215.304 68.8586 216.029 68.8586 216.84C68.8586 217.651 68.704 218.381 68.3946 219.032C68.0853 219.683 67.632 220.195 67.0346 220.568C66.4373 220.941 65.728 221.128 64.9066 221.128ZM64.8106 220.024C65.3546 220.024 65.8346 219.896 66.2506 219.64C66.6773 219.373 67.0026 219 67.2266 218.52C67.4613 218.029 67.5786 217.469 67.5786 216.84C67.5786 216.211 67.4613 215.656 67.2266 215.176C67.0026 214.696 66.6773 214.328 66.2506 214.072C65.8346 213.805 65.3546 213.672 64.8106 213.672C64.2666 213.672 63.7813 213.805 63.3546 214.072C62.9386 214.328 62.6186 214.696 62.3946 215.176C62.1706 215.656 62.0586 216.211 62.0586 216.84C62.0586 217.48 62.1706 218.04 62.3946 218.52C62.6186 219 62.9386 219.373 63.3546 219.64C63.7813 219.896 64.2666 220.024 64.8106 220.024ZM71.7011 216.824C71.7011 217.816 71.9518 218.6 72.4531 219.176C72.9545 219.752 73.6211 220.04 74.4531 220.04C75.0825 220.04 75.6211 219.891 76.0691 219.592C76.5171 219.293 76.7891 218.888 76.8851 218.376H78.0691C77.9625 218.963 77.7385 219.464 77.3971 219.88C77.0665 220.285 76.6451 220.595 76.1331 220.808C75.6211 221.021 75.0611 221.128 74.4531 221.128C73.6531 221.128 72.9491 220.941 72.3411 220.568C71.7438 220.195 71.2798 219.683 70.9491 219.032C70.6185 218.381 70.4531 217.651 70.4531 216.84C70.4531 216.029 70.6131 215.304 70.9331 214.664C71.2638 214.013 71.7278 213.501 72.3251 213.128C72.9225 212.755 73.6211 212.568 74.4211 212.568C75.1678 212.568 75.8238 212.739 76.3891 213.08C76.9545 213.411 77.3865 213.875 77.6851 214.472C77.9945 215.059 78.1438 215.715 78.1331 216.44C78.1331 216.632 78.1225 216.819 78.1011 217H71.1571V215.96H76.8211C76.7891 215.512 76.6718 215.112 76.4691 214.76C76.2771 214.408 76.0051 214.131 75.6531 213.928C75.3011 213.725 74.8905 213.624 74.4211 213.624C73.8558 213.624 73.3705 213.757 72.9651 214.024C72.5598 214.291 72.2451 214.664 72.0211 215.144C71.8078 215.624 71.7011 216.184 71.7011 216.824ZM80.258 209.336H81.49V221H80.258V209.336ZM80.258 219.928H81.49V221H80.258V219.928ZM80.258 209.336H81.074V210.408H80.258V209.336Z" fill="#858588"/>
<path d="M570 203.5H583C591.56 203.5 598.5 210.44 598.5 219C598.5 227.56 591.56 234.5 583 234.5H570C561.44 234.5 554.5 227.56 554.5 219C554.5 210.44 561.44 203.5 570 203.5Z" stroke="#858588" stroke-linecap="round"/>
<path d="M566.2 224.112C565.537 224.112 564.921 223.981 564.352 223.72C563.792 223.449 563.335 223.067 562.98 222.572C562.625 222.077 562.42 221.494 562.364 220.822H563.526C563.554 221.251 563.689 221.639 563.932 221.984C564.175 222.32 564.497 222.586 564.898 222.782C565.299 222.978 565.733 223.076 566.2 223.076C566.676 223.076 567.096 223.001 567.46 222.852C567.833 222.703 568.118 222.497 568.314 222.236C568.519 221.965 568.622 221.657 568.622 221.312C568.622 220.864 568.482 220.5 568.202 220.22C567.931 219.931 567.553 219.716 567.068 219.576L565.122 219.002C564.385 218.797 563.806 218.498 563.386 218.106C562.975 217.705 562.77 217.135 562.77 216.398C562.77 215.885 562.91 215.432 563.19 215.04C563.479 214.648 563.876 214.345 564.38 214.13C564.893 213.906 565.481 213.794 566.144 213.794C566.779 213.794 567.348 213.906 567.852 214.13C568.356 214.345 568.762 214.662 569.07 215.082C569.378 215.493 569.56 215.983 569.616 216.552H568.454C568.361 216.02 568.113 215.6 567.712 215.292C567.311 214.984 566.788 214.83 566.144 214.83C565.463 214.83 564.926 214.97 564.534 215.25C564.151 215.53 563.96 215.913 563.96 216.398C563.96 216.799 564.086 217.121 564.338 217.364C564.599 217.597 564.968 217.784 565.444 217.924L567.404 218.498C567.899 218.638 568.319 218.82 568.664 219.044C569.009 219.259 569.285 219.553 569.49 219.926C569.695 220.299 569.798 220.761 569.798 221.312C569.798 221.863 569.649 222.353 569.35 222.782C569.051 223.202 568.631 223.529 568.09 223.762C567.549 223.995 566.919 224.112 566.2 224.112ZM571.671 213.794H572.749V219.884L576.179 216.734H577.733L574.625 219.548L577.985 224H576.613L573.855 220.248L572.749 221.228V224H571.671V213.794ZM579.2 216.734H580.278V224H579.2V216.734ZM579.2 223.062H580.278V224H579.2V223.062ZM579.2 216.734H579.914V217.672H579.2V216.734ZM579.102 213.906H580.376V215.376H579.102V213.906ZM582.601 216.734H583.679V217.84C583.865 217.495 584.183 217.205 584.631 216.972C585.088 216.739 585.573 216.622 586.087 216.622C586.805 216.622 587.421 216.785 587.935 217.112C588.457 217.439 588.854 217.887 589.125 218.456C589.395 219.016 589.531 219.651 589.531 220.36C589.531 221.069 589.395 221.709 589.125 222.278C588.854 222.847 588.457 223.295 587.935 223.622C587.412 223.949 586.791 224.112 586.073 224.112C585.615 224.112 585.163 224 584.715 223.776C584.276 223.552 583.931 223.267 583.679 222.922V226.618H582.601V216.734ZM586.003 223.146C586.479 223.146 586.899 223.034 587.263 222.81C587.636 222.577 587.921 222.25 588.117 221.83C588.322 221.41 588.425 220.92 588.425 220.36C588.425 219.809 588.322 219.324 588.117 218.904C587.921 218.484 587.636 218.162 587.263 217.938C586.899 217.705 586.479 217.588 586.003 217.588C585.527 217.588 585.102 217.705 584.729 217.938C584.365 218.162 584.08 218.484 583.875 218.904C583.679 219.324 583.581 219.809 583.581 220.36C583.581 220.92 583.679 221.41 583.875 221.83C584.08 222.25 584.365 222.577 584.729 222.81C585.102 223.034 585.527 223.146 586.003 223.146Z" fill="#0E0E11"/>
</svg>
